<svg width="500" height="317" viewBox="0 0 500 317" fill="none" xmlns="http://www.w3.org/2000/svg">
<g clip-path="url(#clip0)">
<path d="M423.35 245.61L456.21 316.64L459.91 316.63L431.5 241L423.35 245.61Z" fill="#DCA86E"/>
<path d="M389.36 247.13L356.5 316.64L352.79 316.63L381.21 245.55L389.36 247.13Z" fill="#DCA86E"/>
<path d="M305.86 301.42L289.16 316.04L269.47 302.18C269.47 302.18 276.17 299.93 287.66 302.99L299.42 293.11L305.86 301.42Z" fill="url(#paint0_linear)"/>
<path d="M402.55 220.8C402.55 220.8 365.64 239.72 352.59 245.38C339.55 251.04 295.18 295.47 295.18 295.47C295.18 295.47 300.86 307.04 303.7 305.01C328.75 287.1 351.83 271.07 366.66 265.48C396.03 254.41 404.21 252 411.74 243.28C411.74 243.28 407.33 232.8 402.55 220.8Z" fill="#2167BE"/>
<path d="M345.03 293.96L340.22 315.63L316.15 316.11C316.15 316.11 320.22 310.33 331.3 306L334.93 291.07L345.03 293.96Z" fill="url(#paint1_linear)"/>
<path d="M403.44 215.99C403.44 215.99 369.1 219.69 356.58 226.44C344.06 233.18 334.1 295 334.1 295C334.1 295 343.82 300.28 345.03 297C354.74 270.56 365.51 249.85 365.51 249.85C377.85 247.6 406.42 261.5 427.08 241.16C427.08 241.15 409.22 227.55 403.44 215.99Z" fill="#277FD9"/>
<path d="M462.61 174.25C462.61 174.25 460.13 178.36 458.57 183.5L444.45 182.2C444.45 182.2 451.74 171.15 451.18 164.45L462.61 174.25Z" fill="#FEC4AD"/>
<path d="M459.57 151.43C458.77 151.22 455.75 150.39 455.14 150.63C454.29 150.98 455.28 152.09 454.68 152.76C453.72 153.86 451.78 153.88 450.54 154.55C449.03 155.36 447.88 156.42 447.19 157.63C446.04 159.65 450.23 164.16 450.88 167.54C452.25 174.61 461.19 175.66 468.45 173.49C471.05 172.72 473.44 170.38 474.85 168.12C476.51 165.46 475.58 161.01 474.18 158.36C473.34 156.77 471.69 155.4 470.24 154.4C468.93 153.5 468.57 149.74 466.99 149.48C467.01 149.48 461.38 151.9 459.57 151.43Z" fill="#FEC4AD"/>
<path d="M479.85 170.41C479.87 170.42 479.61 169.22 481.65 167.29C488.43 160.91 481.18 148.43 473.79 146.26C470.01 145.15 467.6 146.32 466.24 142.57C466.34 142.84 464.71 143.53 464.55 143.66C463.66 144.41 463.24 144.94 463.21 146.18C463.09 151.63 467.97 156.71 471.66 160.15C473.32 161.69 469.23 160.63 467.59 160.94C466.52 161.15 463.73 164.08 463.14 164.53C464.69 166.46 466.07 164.72 468.16 165.65C470.09 166.51 468.87 168.97 467.07 169.26C464.28 169.71 463.15 167.87 463.15 167.87C461.87 168.56 461.67 172.7 460.67 173.78C462.05 174.54 470.13 175.96 472.02 175.94C476.07 175.89 478.55 173.65 479.85 170.41Z" fill="url(#paint2_linear)"/>
<path d="M462.15 176.45C465.11 209.48 427.08 241.15 427.08 241.15C427.08 241.15 402.25 242.08 403.44 215.99C403.44 215.99 405.37 211.25 420.75 197.31C431.02 188 438.24 174.11 445.46 174.39C465.2 175.15 462.15 176.45 462.15 176.45Z" fill="#FF5E69"/>
<path d="M369.91 242.97C369.91 242.97 392.81 251.51 423.34 239.93C453.87 228.35 462.19 174.28 462.19 174.28L465.68 176.05C465.68 176.05 462.28 235.71 422.09 248.68C391.36 258.59 369.91 246.79 369.91 246.79V242.97Z" fill="url(#paint3_linear)"/>
<path d="M458.48 209.45C458.48 209.45 462.14 222.12 462.34 228.44C462.54 234.76 459.84 256.2 459.84 256.2L465.66 256.94C465.66 256.94 470.83 231.38 470.95 223.04C471.07 214.7 466.26 201.18 466.26 201.18L458.48 209.45Z" fill="#F8D2A1"/>
<path d="M458.12 209.98C462.34 228.43 460.59 253.17 460.59 253.17L466.9 253.57C473.82 239.09 473.17 207.02 469.51 193.52C467.36 185.59 466.09 177.6 460.73 176.36C457.38 175.59 450.48 178.04 449.55 181.36C447.55 188.56 456.04 200.93 458.12 209.98Z" fill="#FF5E69"/>
<path d="M457.24 259.39C455.85 262.04 455.22 263.99 456.04 264.66C456.61 265.12 457.52 262.55 458.62 261.63C458.94 262.7 458.99 264.71 458.3 266.4C457.52 268.31 457.59 269.95 459.04 270.09C460.49 270.23 462.86 270.14 463.38 268.93C463.91 267.73 465.1 262.7 465.75 261.03C466.4 259.36 465.54 257.44 465.79 256.48C466.04 255.52 461.5 253.92 461.5 253.92C461.25 254.3 459.85 256.21 459.85 256.21C459.85 256.21 458.67 257.62 458.27 257.88C457.85 258.12 457.24 259.39 457.24 259.39Z" fill="#F8D2A1"/>
<path d="M422.78 0V44" stroke="#D4DBE2" stroke-width="0.25" stroke-miterlimit="10"/>
<path d="M430.57 60.92C430.24 65.17 426.53 68.35 422.28 68.02C418.03 67.69 414.85 63.98 415.18 59.73C415.51 55.48 419.22 52.3 423.47 52.63C427.72 52.96 430.9 56.67 430.57 60.92Z" fill="#FFBA01"/>
<path d="M459.22 63.6H386.34L418.24 40.39H427.33L459.22 63.6Z" fill="#D2DCEB"/>
<path d="M79.72 0V44" stroke="#D4DBE2" stroke-width="0.25" stroke-miterlimit="10"/>
<path d="M87.51 60.92C87.18 65.17 83.47 68.35 79.22 68.02C74.97 67.69 71.79 63.98 72.12 59.73C72.45 55.48 76.16 52.3 80.41 52.63C84.66 52.96 87.84 56.67 87.51 60.92Z" fill="#FFBA01"/>
<path d="M116.15 63.6H43.28L75.17 40.39H84.26L116.15 63.6Z" fill="#D2DCEB"/>
<path d="M0.840088 316.29H499.16" stroke="#A6AEBA" stroke-width="0.5" stroke-miterlimit="10"/>
<path d="M181.99 163.2C181.99 163.2 183.53 159.44 186.32 156.08C189.11 152.73 193.28 147.14 193.28 147.14C193.28 147.14 191.25 151.11 188.49 155.6C185.73 160.1 181.99 163.2 181.99 163.2Z" fill="#50CC85"/>
<path d="M184.88 156.66C184.88 156.66 187.97 154.23 189.83 149.09C191.69 143.95 193.38 140.03 193.38 140.03C193.38 140.03 189.37 145.77 187.64 149.74C185.91 153.72 184.88 156.66 184.88 156.66Z" fill="#50CC85"/>
<path d="M182.19 162.47C182.19 162.47 183.81 156.59 184.13 151.89C184.45 147.19 184.41 144.25 184.41 144.25C184.41 144.25 182.37 152.77 181.75 156.39C181.14 160.01 182.19 162.47 182.19 162.47Z" fill="#50CC85"/>
<path d="M180.81 166.38C180.81 166.38 181.33 160.32 179.62 154.9C177.92 149.48 177.82 146.04 177.82 146.04C177.82 146.04 177 151.71 177.97 156.6C178.95 161.5 180.81 166.38 180.81 166.38Z" fill="#50CC85"/>
<path d="M181.31 165.04C181.31 165.04 185.61 161.37 187.79 160.5C189.97 159.64 192.99 157.12 192.99 157.12C192.99 157.12 189.25 161.91 187.16 162.85C185.08 163.8 181.31 165.04 181.31 165.04Z" fill="#50CC85"/>
<path d="M179.83 170.18C179.83 170.18 180.25 166.87 178.32 162.18C176.4 157.49 175.95 155.17 175.95 155.17C175.95 155.17 175.84 161.53 177.1 163.92C178.37 166.32 179.83 170.18 179.83 170.18Z" fill="#50CC85"/>
<path d="M180.23 167.77C180.23 167.77 182.7 166.12 185.09 165.79C187.48 165.46 188.11 165.13 188.11 165.13C188.11 165.13 186.9 167.33 183.96 167.7C181.02 168.08 180.23 167.77 180.23 167.77Z" fill="#50CC85"/>
<path d="M178.61 173.34C179.14 171.26 179.83 168.04 180.54 165.9C182.11 161.16 185.83 155.05 185.83 155.05C183.56 160.09 181.89 162.93 180.75 167.28C180.3 169 179.51 171.4 179.09 172.96C179.02 173.38 178.68 173.74 178.61 173.34Z" fill="#50CC85"/>
<path d="M179.71 164.9C179.71 164.9 179.47 160.59 177.82 156.25C176.17 151.91 173.92 144.86 173.92 144.86C173.92 144.86 174.59 149.56 175.8 155.02C177.02 160.49 179.71 164.9 179.71 164.9Z" fill="#77E6A6"/>
<path d="M179.07 157.32C179.07 157.32 176.8 153.81 176.71 148C176.62 142.19 176.28 137.67 176.28 137.67C176.28 137.67 178.33 144.83 178.68 149.42C179.04 154.01 179.07 157.32 179.07 157.32Z" fill="#77E6A6"/>
<path d="M179.75 164.09C179.75 164.09 180.16 157.62 181.46 152.79C182.77 147.96 183.82 145.01 183.82 145.01C183.82 145.01 182.92 154.28 182.29 158.13C181.66 161.98 179.75 164.09 179.75 164.09Z" fill="#77E6A6"/>
<path d="M179.79 168.5C179.79 168.5 181.37 162.23 184.95 157.37C188.54 152.51 189.82 149.09 189.82 149.09C189.82 149.09 188.68 155.08 186.01 159.66C183.35 164.23 179.79 168.5 179.79 168.5Z" fill="#77E6A6"/>
<path d="M179.75 166.98C179.75 166.98 176.7 161.8 174.81 160.18C172.92 158.56 170.75 154.98 170.75 154.98C170.75 154.98 172.85 161.08 174.62 162.76C176.39 164.43 179.75 166.98 179.75 166.98Z" fill="#77E6A6"/>
<path d="M179.47 172.66C179.47 172.66 180.2 169.19 183.75 165.14C187.3 161.09 188.55 158.92 188.55 158.92C188.55 158.92 186.46 165.36 184.37 167.32C182.27 169.28 179.47 172.66 179.47 172.66Z" fill="#77E6A6"/>
<path d="M179.89 170.1C179.89 170.1 177.98 167.59 175.69 166.42C173.41 165.26 172.88 164.71 172.88 164.71C172.88 164.71 173.33 167.34 176.16 168.73C179 170.13 179.89 170.1 179.89 170.1Z" fill="#77E6A6"/>
<path d="M179.6 176.25C179.78 173.97 180.2 170.5 180.23 168.1C180.3 162.79 178.67 155.36 178.67 155.36C179.21 161.22 179.9 164.64 179.54 169.41C179.4 171.3 179.36 173.98 179.24 175.69C179.17 176.16 179.39 176.64 179.6 176.25Z" fill="#50CC85"/>
<path d="M176.44 165.79C176.44 165.79 174.9 162.03 172.11 158.67C169.32 155.32 165.15 149.73 165.15 149.73C165.15 149.73 167.18 153.7 169.94 158.19C172.69 162.69 176.44 165.79 176.44 165.79Z" fill="#50CC85"/>
<path d="M173.55 159.25C173.55 159.25 170.46 156.82 168.6 151.68C166.74 146.54 165.05 142.62 165.05 142.62C165.05 142.62 169.06 148.36 170.79 152.33C172.51 156.31 173.55 159.25 173.55 159.25Z" fill="#50CC85"/>
<path d="M176.23 165.06C176.23 165.06 174.61 159.18 174.29 154.48C173.97 149.78 174.01 146.84 174.01 146.84C174.01 146.84 176.05 155.36 176.67 158.98C177.28 162.6 176.23 165.06 176.23 165.06Z" fill="#50CC85"/>
<path d="M177.61 168.97C177.61 168.97 177.09 162.91 178.79 157.49C180.49 152.07 180.59 148.63 180.59 148.63C180.59 148.63 181.41 154.3 180.44 159.19C179.47 164.09 177.61 168.97 177.61 168.97Z" fill="#50CC85"/>
<path d="M177.11 167.63C177.11 167.63 172.81 163.96 170.63 163.09C168.45 162.23 165.43 159.71 165.43 159.71C165.43 159.71 169.17 164.5 171.26 165.44C173.34 166.39 177.11 167.63 177.11 167.63Z" fill="#50CC85"/>
<path d="M178.6 172.77C178.6 172.77 178.18 169.46 180.11 164.77C182.03 160.08 182.48 157.76 182.48 157.76C182.48 157.76 182.59 164.12 181.33 166.51C180.05 168.91 178.6 172.77 178.6 172.77Z" fill="#50CC85"/>
<path d="M178.2 170.36C178.2 170.36 175.73 168.71 173.34 168.38C170.96 168.05 170.32 167.72 170.32 167.72C170.32 167.72 171.53 169.92 174.47 170.29C177.4 170.67 178.2 170.36 178.2 170.36Z" fill="#50CC85"/>
<path d="M179.81 175.93C179.28 173.85 178.59 170.63 177.88 168.49C176.32 163.75 172.59 157.64 172.59 157.64C174.86 162.68 176.53 165.52 177.67 169.87C178.12 171.59 178.91 173.99 179.33 175.55C179.4 175.97 179.74 176.33 179.81 175.93Z" fill="#50CC85"/>
<path d="M185.28 190.45H173.61L170 169.9H189.3L185.28 190.45Z" fill="#D2DCEB"/>
<path d="M318.57 196.1L337.81 316.4L341.52 316.39L326.29 196.07L318.57 196.1Z" fill="#DCA86E"/>
<path d="M185.93 196.15L160.87 316.58L155.88 316.59L175.53 196.18L185.93 196.15Z" fill="#DCA86E"/>
<path d="M353.52 189.07H146.49V198.34H353.52V189.07Z" fill="#DCA86E"/>
<path d="M363.44 189.07H136.56V195.22H363.44V189.07Z" fill="#F3BA7A"/>
<path d="M299.99 185.82H291.94L283.89 134.45H290.01L299.99 185.82Z" fill="#A6AEBA"/>
<path d="M297.68 185.82H266.25L258.2 134.45H289.63L297.68 185.82Z" fill="#D2DCEB"/>
<path d="M299.99 184.66H265.83V188.49H299.99V184.66Z" fill="#D2DCEB"/>
<path d="M343.06 184.66H299.99V188.49H343.06V184.66Z" fill="#A6AEBA"/>
<path d="M280.42 162.63C281.33 166.56 280.69 170.81 278.99 172.12C277.29 173.43 275.18 171.3 274.27 167.37C273.36 163.44 274 159.19 275.7 157.88C277.4 156.57 279.51 158.7 280.42 162.63Z" fill="#A6AEBA"/>
<path d="M231.53 188.31H227.07C225.23 188.31 223.66 186.97 223.38 185.15L221.6 173.68H237L235.22 185.15C234.94 186.97 233.38 188.31 231.53 188.31Z" fill="#A6AEBA"/>
<path d="M235.66 185.87C235.5 185.87 235.34 185.86 235.17 185.85L234.96 185.83L234.79 185.7C234.68 185.62 232.08 183.58 232.08 180.66C232.08 177.68 234.06 175.25 236.5 175.25C237.97 175.25 239.28 175.81 240.09 176.77C240.67 177.46 241.28 178.72 240.91 180.78C240.32 184.04 238.42 185.87 235.66 185.87ZM235.5 184.46C238.31 184.55 239.2 182.39 239.53 180.54C239.75 179.31 239.58 178.35 239.01 177.68C238.47 177.03 237.55 176.66 236.5 176.66C234.84 176.66 233.48 178.46 233.48 180.67C233.49 182.53 235 184.02 235.5 184.46Z" fill="#A6AEBA"/>
<path d="M220.07 189.32H239.59L242.7 185.87H216.96L220.07 189.32Z" fill="#D2DCEB"/>
<path d="M116.63 114.33H23.23V316.37H116.63V114.33Z" fill="#B6BFCC"/>
<path d="M105.88 123.16H33.98V144.34H105.88V123.16Z" fill="#D2DCEB"/>
<path d="M78.53 136.32H61.33C60.89 136.32 60.53 135.96 60.53 135.52V131.98C60.53 131.54 60.89 131.18 61.33 131.18H78.53C78.97 131.18 79.33 131.54 79.33 131.98V135.52C79.33 135.96 78.97 136.32 78.53 136.32Z" fill="white"/>
<path d="M105.88 150.11H33.98V171.29H105.88V150.11Z" fill="#D2DCEB"/>
<path d="M78.53 163.27H61.33C60.89 163.27 60.53 162.91 60.53 162.47V158.93C60.53 158.49 60.89 158.13 61.33 158.13H78.53C78.97 158.13 79.33 158.49 79.33 158.93V162.47C79.33 162.92 78.97 163.27 78.53 163.27Z" fill="white"/>
<path d="M105.88 177.07H33.98V198.25H105.88V177.07Z" fill="#D2DCEB"/>
<path d="M78.53 190.23H61.33C60.89 190.23 60.53 189.87 60.53 189.43V185.89C60.53 185.45 60.89 185.09 61.33 185.09H78.53C78.97 185.09 79.33 185.45 79.33 185.89V189.43C79.33 189.88 78.97 190.23 78.53 190.23Z" fill="white"/>
<path d="M105.88 204.34H33.98V308.18H105.88V204.34Z" fill="#D2DCEB"/>
<path d="M78.53 217.5H61.33C60.89 217.5 60.53 217.14 60.53 216.7V213.16C60.53 212.72 60.89 212.36 61.33 212.36H78.53C78.97 212.36 79.33 212.72 79.33 213.16V216.7C79.33 217.14 78.97 217.5 78.53 217.5Z" fill="white"/>
</g>
<defs>
<linearGradient id="paint0_linear" x1="276.875" y1="292.083" x2="300.161" y2="309.179" gradientUnits="userSpaceOnUse">
<stop stop-color="#343A44"/>
<stop offset="0.3009" stop-color="#232D3E"/>
<stop offset="0.6391" stop-color="#182439"/>
<stop offset="1" stop-color="#142138"/>
</linearGradient>
<linearGradient id="paint1_linear" x1="316.143" y1="303.585" x2="345.031" y2="303.585" gradientUnits="userSpaceOnUse">
<stop stop-color="#343A44"/>
<stop offset="0.3009" stop-color="#232D3E"/>
<stop offset="0.6391" stop-color="#182439"/>
<stop offset="1" stop-color="#142138"/>
</linearGradient>
<linearGradient id="paint2_linear" x1="479.272" y1="172.389" x2="458.686" y2="148.793" gradientUnits="userSpaceOnUse">
<stop stop-color="#343A44"/>
<stop offset="0.3009" stop-color="#232D3E"/>
<stop offset="0.6391" stop-color="#182439"/>
<stop offset="1" stop-color="#142138"/>
</linearGradient>
<linearGradient id="paint3_linear" x1="369.91" y1="213.473" x2="465.685" y2="213.473" gradientUnits="userSpaceOnUse">
<stop stop-color="#343A44"/>
<stop offset="0.3009" stop-color="#232D3E"/>
<stop offset="0.6391" stop-color="#182439"/>
<stop offset="1" stop-color="#142138"/>
</linearGradient>
<clipPath id="clip0">
<rect width="498.32" height="316.64" fill="white" transform="translate(0.840088)"/>
</clipPath>
</defs>
</svg>
