<svg width="112" height="46" viewBox="0 0 112 46" fill="none" xmlns="http://www.w3.org/2000/svg">
<path d="M10.1958 10.8971C12.3836 10.8971 13.9452 11.4482 14.8804 12.5505C15.5651 13.3855 15.9075 14.4293 15.9075 15.6819C15.9075 16.1328 15.8658 16.6088 15.7823 17.1098L14.8053 22.6962C14.4712 24.5834 13.6529 26.0948 12.3502 27.2305C11.0476 28.3661 9.3608 28.934 7.2899 28.934H0L3.1815 10.8971H10.1958ZM8.61761 14.8051H6.98928L5.21065 25.026H7.59051C8.37545 25.026 8.98503 24.8172 9.41925 24.3997C9.87017 23.9655 10.1791 23.264 10.3461 22.2954L11.0726 18.187C11.1394 17.8196 11.1728 17.4856 11.1728 17.185C11.1728 15.5984 10.3211 14.8051 8.61761 14.8051Z" fill="#FE6E00"/>
<path d="M21.8934 29.2847C18.4196 29.2847 16.6827 28.0822 16.6827 25.6773C16.6827 25.3433 16.7161 24.9842 16.7829 24.6001L17.309 21.4938C17.5929 19.8905 18.3278 18.663 19.5135 17.8112C20.716 16.9428 22.3025 16.5086 24.2732 16.5086C27.6301 16.5086 29.3085 17.7778 29.3085 20.3164C29.3085 20.6838 29.2751 21.0846 29.2083 21.5188L28.9077 23.2974H21.2671L21.1669 23.8736C21.1335 24.074 21.1168 24.2577 21.1168 24.4247C21.1168 25.3433 21.6596 25.8026 22.7451 25.8026C23.1459 25.8026 23.4883 25.6773 23.7722 25.4268C24.0561 25.1763 24.2231 24.884 24.2732 24.55L28.4317 24.6001C27.8806 27.7232 25.7012 29.2847 21.8934 29.2847ZM24.8995 21.7693C24.9663 21.4854 24.9997 21.2265 24.9997 20.9927C24.9997 20.7422 24.8912 20.4917 24.6741 20.2412C24.4569 19.9907 24.1062 19.8654 23.6219 19.8654C23.1543 19.8654 22.7201 20.0241 22.3192 20.3414C21.9351 20.6587 21.6679 21.1347 21.5176 21.7693H24.8995Z" fill="#FE6E00"/>
<path d="M34.9865 25.0761C34.9865 25.5103 35.2036 25.7274 35.6379 25.7274C36.0888 25.7274 36.8671 25.4003 37.1677 25.2333L36.6399 28.3077C35.8383 28.959 34.9364 29.2847 33.9344 29.2847C32.4146 29.2847 31.4293 28.934 30.9783 28.2325C30.6944 27.7816 30.5525 27.2889 30.5525 26.7545C30.5525 26.2201 30.5859 25.7525 30.6527 25.3516L33.3833 9.9201H37.642L35.0116 24.7755C34.9949 24.8757 34.9865 24.9759 34.9865 25.0761Z" fill="#FE6E00"/>
<path d="M44.351 25.7274C44.7352 25.7274 45.4827 25.4003 45.7833 25.2333L45.2529 28.3077C44.4679 28.959 43.5745 29.2847 42.5724 29.2847C41.0526 29.2847 40.0673 28.934 39.6164 28.2325C39.3157 27.7649 39.1654 27.2722 39.1654 26.7545C39.1654 26.2201 39.1988 25.7525 39.2656 25.3516L40.7687 16.8843H45.0274L43.6245 24.7755C43.6078 24.8757 43.5995 24.9675 43.5995 25.051C43.5995 25.5019 43.85 25.7274 44.351 25.7274Z" fill="#FE6E00"/>
<path d="M57.3145 10.8971L59.995 19.5398L65.7567 10.8971H70.4914L67.3099 28.934H62.7756L64.5793 18.7632L60.7214 24.8256H57.4397L55.7363 18.7632L53.9326 28.934H49.4234L52.6049 10.8971H57.3145Z" fill="#FE6E00"/>
<path d="M82.0461 25.0761C82.0461 25.5103 82.2632 25.7274 82.6974 25.7274C83.1483 25.7274 83.9246 25.4106 84.2253 25.2435L83.6994 28.3077C82.8978 28.959 81.996 29.2847 80.9939 29.2847C79.1568 29.2847 78.1381 28.6166 77.9377 27.2806C77.1026 28.6166 75.8751 29.2847 74.2551 29.2847C71.5162 29.2847 70.1468 28.1073 70.1468 25.7525C70.1468 25.3516 70.1885 24.9091 70.272 24.4247L70.7981 21.4938C71.0653 19.9907 71.6749 18.7966 72.6268 17.9114C73.5955 17.0096 74.848 16.5587 76.3845 16.5587C77.9377 16.5587 78.9898 16.9177 79.541 17.6359L79.6662 16.8843H83.474L82.0711 24.7755C82.0544 24.8757 82.0461 24.9759 82.0461 25.0761ZM74.6309 23.8736C74.5975 24.0239 74.5808 24.2327 74.5808 24.4999C74.5808 24.7671 74.7061 25.0343 74.9566 25.3015C75.2071 25.5521 75.6246 25.6773 76.2091 25.6773C76.8104 25.6773 77.3281 25.4435 77.7623 24.9759L78.5138 20.7673C78.3301 20.3498 77.8959 20.141 77.2112 20.141C75.9252 20.141 75.1737 20.7589 74.9566 21.9948L74.6309 23.8736Z" fill="#FE6E00"/>
<path d="M94.1719 21.2432C94.1719 20.5251 93.8212 20.166 93.1197 20.166C92.435 20.166 91.8672 20.4249 91.4162 20.9426L90.0134 28.934H85.7547L87.884 16.8843H91.8421L91.5666 18.3624C92.5519 17.1432 93.7961 16.5336 95.2992 16.5336C96.8023 16.5336 97.7793 16.901 98.2302 17.6359C98.5141 18.1035 98.656 18.6379 98.656 19.2392C98.656 19.8404 98.6143 20.3999 98.5308 20.9176L97.8544 24.7755C97.8377 24.8757 97.8294 24.9675 97.8294 25.051C97.8294 25.5019 98.0799 25.7274 98.5809 25.7274C98.965 25.7274 99.6994 25.4106 100 25.2435L99.4827 28.3077C98.6978 28.959 97.8043 29.2847 96.8023 29.2847C94.5309 29.2847 93.3953 28.3327 93.3953 26.4288C93.3953 26.0948 93.4287 25.7358 93.4955 25.3516L94.0967 22.0198C94.1468 21.7192 94.1719 21.4604 94.1719 21.2432Z" fill="#FE6E00"/>
<path d="M38.9189 13.468H52.0711L50.0983 24.5701L65.1294 0L38.9189 13.468Z" fill="url(#paint0_linear)"/>
<path d="M5.42578 42.2845V38.1302C5.42578 37.6068 5.30664 37.2161 5.06836 36.9583C4.83008 36.7005 4.45703 36.5716 3.94922 36.5716C3.27344 36.5716 2.7793 36.7552 2.4668 37.1224C2.1582 37.4896 2.00391 38.0911 2.00391 38.9271V42.2845H1.03125V33.1673H2.00391V35.9271C2.00391 36.2591 1.98828 36.5345 1.95703 36.7532H2.01562C2.20703 36.4446 2.47852 36.2025 2.83008 36.0267C3.18555 35.847 3.58984 35.7571 4.04297 35.7571C4.82812 35.7571 5.41602 35.9446 5.80664 36.3196C6.20117 36.6907 6.39844 37.2825 6.39844 38.095V42.2845H5.42578ZM12.3516 42.2845L12.1582 41.3704H12.1113C11.791 41.7728 11.4707 42.0462 11.1504 42.1907C10.834 42.3314 10.4375 42.4017 9.96094 42.4017C9.32422 42.4017 8.82422 42.2376 8.46094 41.9095C8.10156 41.5814 7.92188 41.1146 7.92188 40.5091C7.92188 39.2122 8.95898 38.5325 11.0332 38.47L12.123 38.4349V38.0364C12.123 37.5325 12.0137 37.1614 11.7949 36.9232C11.5801 36.681 11.2344 36.5599 10.7578 36.5599C10.2227 36.5599 9.61719 36.7239 8.94141 37.0521L8.64258 36.3079C8.95898 36.136 9.30469 36.0013 9.67969 35.9036C10.0586 35.806 10.4375 35.7571 10.8164 35.7571C11.582 35.7571 12.1484 35.9271 12.5156 36.2669C12.8867 36.6068 13.0723 37.1517 13.0723 37.9017V42.2845H12.3516ZM10.1543 41.5989C10.7598 41.5989 11.2344 41.4329 11.5781 41.1009C11.9258 40.7689 12.0996 40.304 12.0996 39.7064V39.1263L11.127 39.1673C10.3535 39.1946 9.79492 39.3157 9.45117 39.5306C9.11133 39.7415 8.94141 40.0716 8.94141 40.5208C8.94141 40.8724 9.04688 41.14 9.25781 41.3235C9.47266 41.5071 9.77148 41.5989 10.1543 41.5989ZM18.0703 42.4017C17.6523 42.4017 17.2695 42.3255 16.9219 42.1732C16.5781 42.0169 16.2891 41.7786 16.0547 41.4583H15.9844C16.0312 41.8333 16.0547 42.1888 16.0547 42.5247V45.1673H15.082V35.8626H15.873L16.0078 36.7415H16.0547C16.3047 36.39 16.5957 36.136 16.9277 35.9798C17.2598 35.8235 17.6406 35.7454 18.0703 35.7454C18.9219 35.7454 19.5781 36.0364 20.0391 36.6185C20.5039 37.2005 20.7363 38.0169 20.7363 39.0677C20.7363 40.1224 20.5 40.9427 20.0273 41.5286C19.5586 42.1107 18.9062 42.4017 18.0703 42.4017ZM17.9297 36.5716C17.2734 36.5716 16.7988 36.7532 16.5059 37.1165C16.2129 37.4798 16.0625 38.0579 16.0547 38.8509V39.0677C16.0547 39.97 16.2051 40.6165 16.5059 41.0071C16.8066 41.3939 17.2891 41.5872 17.9531 41.5872C18.5078 41.5872 18.9414 41.3626 19.2539 40.9134C19.5703 40.4642 19.7285 39.845 19.7285 39.056C19.7285 38.2552 19.5703 37.6419 19.2539 37.2161C18.9414 36.7864 18.5 36.5716 17.9297 36.5716ZM25.4297 42.4017C25.0117 42.4017 24.6289 42.3255 24.2812 42.1732C23.9375 42.0169 23.6484 41.7786 23.4141 41.4583H23.3438C23.3906 41.8333 23.4141 42.1888 23.4141 42.5247V45.1673H22.4414V35.8626H23.2324L23.3672 36.7415H23.4141C23.6641 36.39 23.9551 36.136 24.2871 35.9798C24.6191 35.8235 25 35.7454 25.4297 35.7454C26.2812 35.7454 26.9375 36.0364 27.3984 36.6185C27.8633 37.2005 28.0957 38.0169 28.0957 39.0677C28.0957 40.1224 27.8594 40.9427 27.3867 41.5286C26.918 42.1107 26.2656 42.4017 25.4297 42.4017ZM25.2891 36.5716C24.6328 36.5716 24.1582 36.7532 23.8652 37.1165C23.5723 37.4798 23.4219 38.0579 23.4141 38.8509V39.0677C23.4141 39.97 23.5645 40.6165 23.8652 41.0071C24.166 41.3939 24.6484 41.5872 25.3125 41.5872C25.8672 41.5872 26.3008 41.3626 26.6133 40.9134C26.9297 40.4642 27.0879 39.845 27.0879 39.056C27.0879 38.2552 26.9297 37.6419 26.6133 37.2161C26.3008 36.7864 25.8594 36.5716 25.2891 36.5716ZM30.7734 42.2845H29.8008V35.8626H30.7734V42.2845ZM29.7188 34.1224C29.7188 33.8997 29.7734 33.7376 29.8828 33.636C29.9922 33.5306 30.1289 33.4778 30.293 33.4778C30.4492 33.4778 30.584 33.5306 30.6973 33.636C30.8105 33.7415 30.8672 33.9036 30.8672 34.1224C30.8672 34.3411 30.8105 34.5052 30.6973 34.6146C30.584 34.72 30.4492 34.7728 30.293 34.7728C30.1289 34.7728 29.9922 34.72 29.8828 34.6146C29.7734 34.5052 29.7188 34.3411 29.7188 34.1224ZM37.2305 42.2845V38.1302C37.2305 37.6068 37.1113 37.2161 36.873 36.9583C36.6348 36.7005 36.2617 36.5716 35.7539 36.5716C35.082 36.5716 34.5898 36.7532 34.2773 37.1165C33.9648 37.4798 33.8086 38.0794 33.8086 38.9153V42.2845H32.8359V35.8626H33.627L33.7852 36.7415H33.832C34.0312 36.4251 34.3105 36.181 34.6699 36.0091C35.0293 35.8333 35.4297 35.7454 35.8711 35.7454C36.6445 35.7454 37.2266 35.9329 37.6172 36.3079C38.0078 36.679 38.2031 37.2747 38.2031 38.095V42.2845H37.2305ZM42.9199 42.4017C41.9707 42.4017 41.2207 42.1126 40.6699 41.5345C40.123 40.9564 39.8496 40.1536 39.8496 39.1263C39.8496 38.0911 40.1035 37.2689 40.6113 36.6595C41.123 36.0501 41.8086 35.7454 42.668 35.7454C43.4727 35.7454 44.1094 36.011 44.5781 36.5423C45.0469 37.0696 45.2812 37.7669 45.2812 38.6341V39.2493H40.8574C40.877 40.0032 41.0664 40.5755 41.4258 40.9661C41.7891 41.3568 42.2988 41.5521 42.9551 41.5521C43.6465 41.5521 44.3301 41.4075 45.0059 41.1185V41.9857C44.6621 42.1341 44.3359 42.2396 44.0273 42.3021C43.7227 42.3685 43.3535 42.4017 42.9199 42.4017ZM42.6562 36.5599C42.1406 36.5599 41.7285 36.7278 41.4199 37.0638C41.1152 37.3997 40.9355 37.8646 40.8809 38.4583H44.2383C44.2383 37.845 44.1016 37.3763 43.8281 37.0521C43.5547 36.7239 43.1641 36.5599 42.6562 36.5599ZM51.0879 40.5325C51.0879 41.1302 50.8652 41.5911 50.4199 41.9153C49.9746 42.2396 49.3496 42.4017 48.5449 42.4017C47.6934 42.4017 47.0293 42.2669 46.5527 41.9974V41.095C46.8613 41.2513 47.1914 41.3743 47.543 41.4642C47.8984 41.554 48.2402 41.5989 48.5684 41.5989C49.0762 41.5989 49.4668 41.5189 49.7402 41.3587C50.0137 41.1946 50.1504 40.9466 50.1504 40.6146C50.1504 40.3646 50.041 40.1517 49.8223 39.9759C49.6074 39.7962 49.1855 39.5853 48.5566 39.3431C47.959 39.1204 47.5332 38.9271 47.2793 38.763C47.0293 38.595 46.8418 38.4056 46.7168 38.1946C46.5957 37.9837 46.5352 37.7318 46.5352 37.4388C46.5352 36.9153 46.748 36.5032 47.1738 36.2025C47.5996 35.8978 48.1836 35.7454 48.9258 35.7454C49.6172 35.7454 50.293 35.886 50.9531 36.1673L50.6074 36.9583C49.9629 36.6927 49.3789 36.5599 48.8555 36.5599C48.3945 36.5599 48.0469 36.6321 47.8125 36.7767C47.5781 36.9212 47.4609 37.1204 47.4609 37.3743C47.4609 37.5462 47.5039 37.6927 47.5898 37.8138C47.6797 37.9349 47.8223 38.0501 48.0176 38.1595C48.2129 38.2689 48.5879 38.4271 49.1426 38.6341C49.9043 38.9114 50.418 39.1907 50.6836 39.472C50.9531 39.7532 51.0879 40.1068 51.0879 40.5325ZM56.8184 40.5325C56.8184 41.1302 56.5957 41.5911 56.1504 41.9153C55.7051 42.2396 55.0801 42.4017 54.2754 42.4017C53.4238 42.4017 52.7598 42.2669 52.2832 41.9974V41.095C52.5918 41.2513 52.9219 41.3743 53.2734 41.4642C53.6289 41.554 53.9707 41.5989 54.2988 41.5989C54.8066 41.5989 55.1973 41.5189 55.4707 41.3587C55.7441 41.1946 55.8809 40.9466 55.8809 40.6146C55.8809 40.3646 55.7715 40.1517 55.5527 39.9759C55.3379 39.7962 54.916 39.5853 54.2871 39.3431C53.6895 39.1204 53.2637 38.9271 53.0098 38.763C52.7598 38.595 52.5723 38.4056 52.4473 38.1946C52.3262 37.9837 52.2656 37.7318 52.2656 37.4388C52.2656 36.9153 52.4785 36.5032 52.9043 36.2025C53.3301 35.8978 53.9141 35.7454 54.6562 35.7454C55.3477 35.7454 56.0234 35.886 56.6836 36.1673L56.3379 36.9583C55.6934 36.6927 55.1094 36.5599 54.5859 36.5599C54.125 36.5599 53.7773 36.6321 53.543 36.7767C53.3086 36.9212 53.1914 37.1204 53.1914 37.3743C53.1914 37.5462 53.2344 37.6927 53.3203 37.8138C53.4102 37.9349 53.5527 38.0501 53.748 38.1595C53.9434 38.2689 54.3184 38.4271 54.873 38.6341C55.6348 38.9114 56.1484 39.1907 56.4141 39.472C56.6836 39.7532 56.8184 40.1068 56.8184 40.5325ZM65.8945 41.4232H65.8418C65.3926 42.0755 64.7207 42.4017 63.8262 42.4017C62.9863 42.4017 62.332 42.1146 61.8633 41.5403C61.3984 40.9661 61.166 40.1497 61.166 39.0911C61.166 38.0325 61.4004 37.2103 61.8691 36.6243C62.3379 36.0384 62.9902 35.7454 63.8262 35.7454C64.6973 35.7454 65.3652 36.0618 65.8301 36.6946H65.9062L65.8652 36.2318L65.8418 35.7806V33.1673H66.8145V42.2845H66.0234L65.8945 41.4232ZM63.9492 41.5872C64.6133 41.5872 65.0938 41.4075 65.3906 41.0482C65.6914 40.6849 65.8418 40.1009 65.8418 39.2962V39.0911C65.8418 38.181 65.6895 37.5325 65.3848 37.1458C65.084 36.7552 64.6016 36.5599 63.9375 36.5599C63.3672 36.5599 62.9297 36.7825 62.625 37.2278C62.3242 37.6693 62.1738 38.2943 62.1738 39.1028C62.1738 39.9232 62.3242 40.5423 62.625 40.9603C62.9258 41.3782 63.3672 41.5872 63.9492 41.5872ZM71.5957 42.4017C70.6465 42.4017 69.8965 42.1126 69.3457 41.5345C68.7988 40.9564 68.5254 40.1536 68.5254 39.1263C68.5254 38.0911 68.7793 37.2689 69.2871 36.6595C69.7988 36.0501 70.4844 35.7454 71.3438 35.7454C72.1484 35.7454 72.7852 36.011 73.2539 36.5423C73.7227 37.0696 73.957 37.7669 73.957 38.6341V39.2493H69.5332C69.5527 40.0032 69.7422 40.5755 70.1016 40.9661C70.4648 41.3568 70.9746 41.5521 71.6309 41.5521C72.3223 41.5521 73.0059 41.4075 73.6816 41.1185V41.9857C73.3379 42.1341 73.0117 42.2396 72.7031 42.3021C72.3984 42.3685 72.0293 42.4017 71.5957 42.4017ZM71.332 36.5599C70.8164 36.5599 70.4043 36.7278 70.0957 37.0638C69.791 37.3997 69.6113 37.8646 69.5566 38.4583H72.9141C72.9141 37.845 72.7773 37.3763 72.5039 37.0521C72.2305 36.7239 71.8398 36.5599 71.332 36.5599ZM76.5938 42.2845H75.6211V33.1673H76.5938V42.2845ZM79.6289 42.2845H78.6562V35.8626H79.6289V42.2845ZM78.5742 34.1224C78.5742 33.8997 78.6289 33.7376 78.7383 33.636C78.8477 33.5306 78.9844 33.4778 79.1484 33.4778C79.3047 33.4778 79.4395 33.5306 79.5527 33.636C79.666 33.7415 79.7227 33.9036 79.7227 34.1224C79.7227 34.3411 79.666 34.5052 79.5527 34.6146C79.4395 34.72 79.3047 34.7728 79.1484 34.7728C78.9844 34.7728 78.8477 34.72 78.7383 34.6146C78.6289 34.5052 78.5742 34.3411 78.5742 34.1224ZM83.0977 42.2845L80.6602 35.8626H81.7031L83.0859 39.6712C83.3984 40.5618 83.582 41.14 83.6367 41.4056H83.6836C83.7266 41.1985 83.8613 40.7708 84.0879 40.1224C84.3184 39.47 84.832 38.0501 85.6289 35.8626H86.6719L84.2344 42.2845H83.0977ZM90.416 42.4017C89.4668 42.4017 88.7168 42.1126 88.166 41.5345C87.6191 40.9564 87.3457 40.1536 87.3457 39.1263C87.3457 38.0911 87.5996 37.2689 88.1074 36.6595C88.6191 36.0501 89.3047 35.7454 90.1641 35.7454C90.9688 35.7454 91.6055 36.011 92.0742 36.5423C92.543 37.0696 92.7773 37.7669 92.7773 38.6341V39.2493H88.3535C88.373 40.0032 88.5625 40.5755 88.9219 40.9661C89.2852 41.3568 89.7949 41.5521 90.4512 41.5521C91.1426 41.5521 91.8262 41.4075 92.502 41.1185V41.9857C92.1582 42.1341 91.832 42.2396 91.5234 42.3021C91.2188 42.3685 90.8496 42.4017 90.416 42.4017ZM90.1523 36.5599C89.6367 36.5599 89.2246 36.7278 88.916 37.0638C88.6113 37.3997 88.4316 37.8646 88.377 38.4583H91.7344C91.7344 37.845 91.5977 37.3763 91.3242 37.0521C91.0508 36.7239 90.6602 36.5599 90.1523 36.5599ZM97.3711 35.7454C97.6562 35.7454 97.9121 35.7689 98.1387 35.8157L98.0039 36.7181C97.7383 36.6595 97.5039 36.6302 97.3008 36.6302C96.7812 36.6302 96.3359 36.8411 95.9648 37.263C95.5977 37.6849 95.4141 38.2103 95.4141 38.8392V42.2845H94.4414V35.8626H95.2441L95.3555 37.0521H95.4023C95.6406 36.6341 95.9277 36.3118 96.2637 36.0853C96.5996 35.8587 96.9688 35.7454 97.3711 35.7454ZM102.053 42.4017C101.104 42.4017 100.354 42.1126 99.8027 41.5345C99.2559 40.9564 98.9824 40.1536 98.9824 39.1263C98.9824 38.0911 99.2363 37.2689 99.7441 36.6595C100.256 36.0501 100.941 35.7454 101.801 35.7454C102.605 35.7454 103.242 36.011 103.711 36.5423C104.18 37.0696 104.414 37.7669 104.414 38.6341V39.2493H99.9902C100.01 40.0032 100.199 40.5755 100.559 40.9661C100.922 41.3568 101.432 41.5521 102.088 41.5521C102.779 41.5521 103.463 41.4075 104.139 41.1185V41.9857C103.795 42.1341 103.469 42.2396 103.16 42.3021C102.855 42.3685 102.486 42.4017 102.053 42.4017ZM101.789 36.5599C101.273 36.5599 100.861 36.7278 100.553 37.0638C100.248 37.3997 100.068 37.8646 100.014 38.4583H103.371C103.371 37.845 103.234 37.3763 102.961 37.0521C102.688 36.7239 102.297 36.5599 101.789 36.5599ZM110.449 41.4232H110.396C109.947 42.0755 109.275 42.4017 108.381 42.4017C107.541 42.4017 106.887 42.1146 106.418 41.5403C105.953 40.9661 105.721 40.1497 105.721 39.0911C105.721 38.0325 105.955 37.2103 106.424 36.6243C106.893 36.0384 107.545 35.7454 108.381 35.7454C109.252 35.7454 109.92 36.0618 110.385 36.6946H110.461L110.42 36.2318L110.396 35.7806V33.1673H111.369V42.2845H110.578L110.449 41.4232ZM108.504 41.5872C109.168 41.5872 109.648 41.4075 109.945 41.0482C110.246 40.6849 110.396 40.1009 110.396 39.2962V39.0911C110.396 38.181 110.244 37.5325 109.939 37.1458C109.639 36.7552 109.156 36.5599 108.492 36.5599C107.922 36.5599 107.484 36.7825 107.18 37.2278C106.879 37.6693 106.729 38.2943 106.729 39.1028C106.729 39.9232 106.879 40.5423 107.18 40.9603C107.48 41.3782 107.922 41.5872 108.504 41.5872Z" fill="black"/>
<defs>
<linearGradient id="paint0_linear" x1="35" y1="14" x2="72.5" y2="-1.5" gradientUnits="userSpaceOnUse">
<stop stop-color="#151522"/>
<stop offset="1" stop-color="#666666"/>
</linearGradient>
</defs>
</svg>
