<svg width="293" height="214" viewBox="0 0 293 214" fill="none" xmlns="http://www.w3.org/2000/svg">
<g clip-path="url(#clip0)">
<path d="M44.7967 163.508C41.0556 164.189 0.0770663 171.78 0.503426 178.413C0.804762 183.1 21.4575 182.517 52.6315 193.619C76.5573 202.14 76.6919 206.866 91.3516 211.384C117.523 219.452 125.6 207.015 180.392 198.736C216.251 193.319 233.188 195.565 265.816 183.38C277.424 179.046 293.108 173.188 292.483 168.024C291.801 162.4 272.163 160.799 185.364 157.634C131.364 155.667 93.5924 154.633 44.7967 163.508Z" fill="#EBEFF2" fill-opacity="0.3"/>
<path d="M165.024 165.917C155.54 166.241 147.237 169.358 147.397 170.284C147.524 171.019 152.943 170.119 169.092 169.681C179.708 169.395 183.043 169.63 183.102 169.079C183.202 168.184 174.594 165.59 165.024 165.917Z" fill="#D8DEE8"/>
<path d="M246.982 177.961C241.805 178.379 232.938 179.443 232.972 180.37C233.002 181.226 240.584 181.898 247.585 181.575C256.221 181.174 265 179.209 264.91 178.262C264.814 177.247 254.464 177.357 246.982 177.961Z" fill="#D8DEE8"/>
<path d="M142.274 184.134C142.361 185.317 134.003 186.114 133.837 188.953C133.638 192.358 145.496 194.109 145.589 197.987C145.61 198.884 145.039 201.447 133.234 205.214C120.722 209.207 109.496 212.794 95.7192 209.581C86.8458 207.511 88.2723 205.166 71.1618 198.438C56.6207 192.722 48.7235 191.716 48.8645 189.705C49.0216 187.466 59.3376 186.383 75.2299 185.188C113.722 182.297 142.114 181.962 142.274 184.134Z" fill="#D8DEE8"/>
<path d="M84.5252 104.194C81.0983 103.974 77.8622 101.804 76.4693 98.4624L56.8359 51.3359C55.0487 47.0447 57.0651 42.1881 61.3624 40.4661C65.6901 38.7314 72.4365 40.7753 74.2702 45.1114L94.4116 92.7488C96.311 97.2402 94.1696 102.151 89.6528 103.697C88.5404 104.077 85.6552 104.266 84.5252 104.194Z" fill="url(#paint0_linear)"/>
<path opacity="0.3" d="M61.3624 40.4661C65.6901 38.7314 72.4365 40.7753 74.2702 45.1114L92.6854 88.669C89.6031 87.8777 85.955 87.9482 82.4527 84.8792C76.6216 79.7694 79.4907 73.2229 74.8696 67.3907C72.7571 64.7254 68.8493 61.919 60.8927 61.0733L56.8359 51.3359C55.0487 47.0447 57.0651 42.1881 61.3624 40.4661Z" fill="#97A6B7"/>
<path d="M49.5428 31.1133C49.7111 31.1133 49.8794 31.1261 50.0445 31.1485L62.1813 31.0156V62.5501L50.4628 62.3899C50.1615 62.4668 49.8554 62.5069 49.5428 62.5069C45.3834 62.5069 42.011 55.4798 42.011 46.8109C42.011 38.142 45.3834 31.1133 49.5428 31.1133Z" fill="url(#paint1_linear)"/>
<path d="M62.1813 31.0156C57.5843 41.5169 57.5843 51.9799 62.1813 62.5501L152.457 91.5555L153.39 3.0466L62.1813 31.0156Z" fill="url(#paint2_linear)"/>
<path opacity="0.25" d="M128.088 65.5407C119.504 62.2906 116.837 49.8463 106.872 49.4282C99.0535 49.0998 96.6973 56.6876 89.0356 55.869C81.1928 55.0313 79.8753 46.5818 71.0933 43.6025C67.1005 42.249 62.9219 42.4988 58.8683 43.6441C58.3233 49.9152 59.4229 56.207 62.183 62.5533L152.459 91.5587L147.118 61.5074C138.216 66.694 132.249 67.1152 128.088 65.5407Z" fill="url(#paint3_linear)"/>
<path d="M156.835 92.7216C168.962 92.7216 178.794 72.2305 178.794 46.9534C178.794 21.6764 168.962 1.1853 156.835 1.1853C144.707 1.1853 134.875 21.6764 134.875 46.9534C134.875 72.2305 144.707 92.7216 156.835 92.7216Z" fill="url(#paint4_linear)"/>
<path d="M156.834 91.1678C159.409 91.1678 161.94 90.0882 164.353 87.9594C166.811 85.7922 169.034 82.6591 170.96 78.6434C175.009 70.2035 177.239 58.9493 177.239 46.9518C177.239 34.9544 175.009 23.7001 170.96 15.2603C169.034 11.2462 166.811 8.11147 164.353 5.94424C161.938 3.81545 159.409 2.73584 156.834 2.73584C154.26 2.73584 151.729 3.81545 149.315 5.94424C146.858 8.11147 144.635 11.2446 142.709 15.2603C141.016 18.789 139.641 22.8096 138.613 27.1712C137.183 33.2404 141.314 39.5772 141.314 46.5578C141.314 53.9805 137.283 61.5138 138.892 67.8761C139.884 71.7973 141.163 75.4238 142.707 78.6418C144.634 82.6559 146.857 85.7906 149.314 87.9578C151.729 90.0882 154.26 91.1678 156.834 91.1678Z" fill="url(#paint5_linear)"/>
<path d="M158.643 47.5541C158.643 59.1495 150.96 68.3566 141.615 68.1212C132.417 67.8905 125.063 58.5664 125.063 47.2946C125.063 36.0212 132.417 26.8124 141.615 26.7227C150.958 26.6314 158.643 35.9571 158.643 47.5541Z" fill="url(#paint6_linear)"/>
<path opacity="0.3" d="M157.166 47.3651C157.166 55.9764 153.422 62.8128 148.87 62.6382C144.388 62.4668 140.804 55.5439 140.804 47.1729C140.804 38.8019 144.387 31.9638 148.87 31.8965C153.422 31.8293 157.166 38.7538 157.166 47.3651Z" fill="url(#paint7_linear)"/>
<path opacity="0.5" d="M269.277 64.011L184.588 62.7311C177.699 62.627 171.838 68.6818 171.586 76.2551C171.334 83.8284 176.794 89.8944 183.689 89.8047L268.458 88.6946C274.112 88.6209 278.825 83.0995 279.048 76.3624C279.27 69.6268 274.925 64.0974 269.277 64.011Z" fill="url(#paint8_linear)"/>
<path opacity="0.5" d="M249.098 93.5481L203.141 94.6549C199.503 94.743 196.419 98.0507 196.286 102.044C196.153 106.037 199.024 109.142 202.665 108.98L248.653 106.942C251.804 106.803 254.436 103.718 254.558 100.051C254.68 96.3832 252.248 93.4712 249.098 93.5481Z" fill="url(#paint9_linear)"/>
<path d="M259.281 33.7738L216.538 31.6739C213.227 31.5105 210.423 34.4226 210.298 38.1772C210.173 41.9318 212.775 45.0697 216.088 45.1834L258.852 46.6603C261.846 46.7644 264.353 43.9789 264.472 40.4421C264.59 36.9069 262.274 33.9212 259.281 33.7738Z" fill="url(#paint10_linear)"/>
<path d="M277.49 40.9563C277.374 44.4242 274.951 47.1536 272.061 47.0543C269.15 46.9534 266.872 44.0269 266.989 40.5174C267.106 37.0079 269.573 34.28 272.481 34.4225C275.371 34.5635 277.605 37.4884 277.49 40.9563Z" fill="url(#paint11_linear)"/>
<g opacity="0.5">
<path opacity="0.5" d="M275.607 50.2916L243.42 49.2936C240.954 49.2168 238.869 51.4865 238.773 54.3633C238.677 57.2402 240.608 59.6108 243.073 59.6589L275.273 60.2868C277.554 60.3316 279.468 58.1404 279.559 55.3933C279.652 52.6462 277.887 50.362 275.607 50.2916Z" fill="url(#paint12_linear)"/>
<path opacity="0.5" d="M289.529 55.64C289.426 58.3406 287.554 60.487 285.338 60.4325C283.11 60.3781 281.38 58.1243 281.483 55.3981C281.587 52.6718 283.485 50.527 285.711 50.6055C287.928 50.684 289.632 52.9377 289.529 55.64Z" fill="url(#paint13_linear)"/>
</g>
<path d="M203.888 113.375C203.888 113.375 207.672 115.094 207.733 115.368C207.796 115.642 205.3 115.276 204.28 115.315C203.263 115.355 202.424 115.054 202.516 114.623C202.609 114.192 202.965 113.108 202.965 113.108L203.888 113.375Z" fill="url(#paint14_linear)"/>
<path d="M204.028 111.982L203.797 113.684C203.797 113.684 203.197 113.897 202.795 113.646L202.624 111.778L204.028 111.982Z" fill="url(#paint15_linear)"/>
<path d="M186.207 112.022L185.766 112.728C185.643 112.925 185.606 113.164 185.665 113.388C185.819 113.976 186.127 115.119 186.26 115.417C186.442 115.824 188.892 116.065 188.892 116.065C188.892 116.065 189.11 115.757 188.602 115.387C188.093 115.015 187.766 114.958 187.587 114.41C187.407 113.862 187.287 112.315 187.287 112.315L186.207 112.022Z" fill="url(#paint16_linear)"/>
<path d="M188.039 110.228C187.878 110.356 187.091 112.741 187.091 112.741C187.091 112.741 186.837 113.066 186.352 112.585C185.868 112.105 186.133 112.371 186.133 112.371L186.224 110.024L188.039 110.228Z" fill="url(#paint17_linear)"/>
<path d="M206.108 77.7768C206.308 82.8545 206.316 88.3727 206.023 94.2673C205.694 100.905 205.032 107.04 204.199 112.601C203.889 112.611 203.562 112.613 203.223 112.603C202.993 112.597 202.771 112.585 202.556 112.571C202.123 111.418 201.612 109.901 201.153 108.091C200.672 106.186 200.381 104.477 200.174 102.845C199.445 97.0928 200.299 96.5915 199.708 92.3275C199.183 88.5521 198.44 88.4047 197.565 83.0451C196.616 77.229 197.323 76.356 197.666 76.042C199.129 74.6981 202.562 75.6111 206.108 77.7768Z" fill="url(#paint18_linear)"/>
<path opacity="0.3" d="M197.667 76.0404C199.061 74.7606 202.25 75.5359 205.619 77.4885C201.745 81.6724 201.322 84.3858 201.786 86.1462C202.312 88.1356 203.907 88.7091 203.9 90.8859C203.892 93.5609 201.479 94.2689 201.53 97.0977C201.564 98.9686 202.625 98.9493 202.876 101.261C203.173 103.995 201.786 104.937 202.235 106.962C202.429 107.831 202.98 108.969 204.55 110.141C204.436 110.972 204.32 111.794 204.199 112.601C203.889 112.611 203.562 112.613 203.222 112.603C202.993 112.597 202.77 112.585 202.556 112.571C202.123 111.418 201.612 109.901 201.153 108.091C200.672 106.186 200.381 104.477 200.174 102.843C199.445 97.0912 200.299 96.5899 199.707 92.3259C199.183 88.5505 198.44 88.4031 197.564 83.0435C196.617 77.2274 197.324 76.3544 197.667 76.0404Z" fill="url(#paint19_linear)"/>
<path d="M203.708 77.6919C200.373 82.571 196.774 88.6418 193.556 95.9091C191.124 101.4 189.36 106.558 188.065 111.152C187.89 111.234 187.476 111.395 186.947 111.325C186.228 111.23 185.795 110.771 185.683 110.642C185.155 107.348 185.213 104.559 185.393 102.545C185.506 101.256 185.71 99.1095 186.532 96.4585C187.454 93.4904 188.087 93.3222 189.288 90.1827C190.535 86.9231 190.233 86.1093 191.427 82.0296C191.918 80.3541 192.74 77.8601 194.095 74.8759C197.3 75.813 200.504 76.7532 203.708 77.6919Z" fill="url(#paint20_linear)"/>
<path d="M220.183 80.1538C220.354 81.3744 217.681 83.3927 215.222 83.1764C211.869 82.8817 209.07 78.4415 208.772 74.916C208.708 74.1615 208.754 73.4023 208.6 73.3782C208.209 73.3206 207.206 77.9514 206.419 81.8758C205.786 82.108 204.826 82.3531 203.729 82.1737C201.934 81.8806 201.721 80.7657 199.713 80.0385C198.541 79.614 197.393 79.614 195.098 79.6124C192.506 79.6108 192.436 79.9296 191.935 79.6973C191.935 79.6973 191.812 79.6301 191.706 79.5532C189.861 78.2301 195.14 68.166 193.62 58.882C193.452 57.8504 193.192 56.79 193.769 55.7569C195.26 53.0883 201.15 52.7119 204.798 54.4674C205.799 54.9496 207.474 56.002 208.969 57.112C209.567 57.5557 210.189 58.0523 210.838 58.6193C212.848 60.3733 214.177 61.9831 214.409 62.2746C217.85 66.6235 212.692 74.7478 216.308 78.0955C217.886 79.5564 220.033 79.0999 220.183 80.1538Z" fill="url(#paint21_linear)"/>
<path d="M209.326 53.5064C209.326 53.5064 208.379 54.5812 207.361 55.1386C206.441 55.6416 204.412 54.7942 203.942 54.6949C203.473 54.5956 204.037 55.8578 204.922 56.7292C205.806 57.599 208.733 59.59 209.523 59.6237C210.312 59.6573 209.397 58.9669 208.911 58.1612C208.427 57.3571 209.11 55.6928 209.721 55.1819C210.335 54.6677 209.326 53.5064 209.326 53.5064Z" fill="url(#paint22_linear)"/>
<path d="M211.504 54.3473C212.58 54.2656 213.665 52.9425 213.445 52.3659C213.383 52.2009 213.244 52.1753 211.139 51.8277C210.094 51.6563 209.571 51.5842 209.211 51.8741C208.99 52.0503 208.818 52.3643 208.764 52.6606C208.736 52.8128 208.735 53.0242 208.76 53.4423C208.784 53.8139 208.776 53.7979 208.786 53.9068C208.808 54.1711 208.881 54.634 209.139 55.278C209.246 55.161 209.387 55.0201 209.567 54.8823C209.635 54.8295 209.908 54.6228 210.219 54.4979C210.753 54.2833 211.155 54.373 211.504 54.3473Z" fill="url(#paint23_linear)"/>
<path d="M208.746 54.5604C208.746 54.5604 208.794 55.5887 209.764 56.0388C210.631 56.4425 211.783 54.6324 211.466 53.9405C211.36 53.7098 211.033 53.4583 210.698 53.3814C210.499 53.335 210.403 53.375 210.081 53.2933C209.785 53.2181 209.727 53.1492 209.611 53.1716C209.467 53.2004 209.284 53.3638 209.148 54.0029C209.078 53.7531 208.919 53.5865 208.747 53.5769C208.72 53.5753 208.642 53.5833 208.576 53.6249C208.34 53.7771 208.387 54.1583 208.746 54.5604Z" fill="url(#paint24_linear)"/>
<path d="M185.558 75.3052C184.104 74.594 180.967 72.7712 180.004 69.4122C178.398 63.8219 184.109 58.4896 187.056 56.4953C190.437 54.208 193.833 53.838 195.898 53.6137C198.459 53.335 200.022 53.1652 201.195 54.1263C204.231 56.6107 202.407 64.8103 199.4 65.6544C198.416 65.9315 198.044 65.2107 195.981 64.7158C195.309 64.554 190.299 63.3478 187.693 65.9972C185.869 67.8505 185.636 71.1742 186.923 74.2801C186.47 74.6213 186.013 74.9624 185.558 75.3052Z" fill="url(#paint25_linear)"/>
<path d="M229.005 81.7364L42.2384 76.7004C32.5844 76.4409 24.6375 84.2224 24.6375 94.0879V131.479C24.6375 141.342 32.5844 149.05 42.2384 148.698L229.005 141.881C235.637 141.639 240.947 134.95 240.947 126.938V96.5675C240.946 88.5537 235.637 81.9142 229.005 81.7364Z" fill="#97A6B7"/>
<path d="M42.2372 146.351C33.8943 146.638 27.0149 139.946 27.0149 131.427V94.1151C27.0149 85.5968 33.8943 78.8388 42.2372 79.0454L229.003 83.6938C234.748 83.8364 239.371 89.6013 239.371 96.5466V126.968C239.371 133.913 234.748 139.721 229.003 139.92L42.2372 146.351Z" fill="url(#paint26_linear)"/>
<path d="M65.6916 93.8076L70.7662 104.525C70.9538 104.921 71.3144 105.195 71.7328 105.259L82.895 106.97C83.9257 107.128 84.336 108.459 83.5907 109.225L75.5476 117.498C75.2478 117.807 75.11 118.249 75.1805 118.68L77.0911 130.305C77.269 131.387 76.1791 132.239 75.2446 131.748L65.1306 126.415C64.7523 126.215 64.3003 126.223 63.922 126.436L53.5981 132.23C52.6251 132.776 51.4855 131.954 51.6714 130.838L53.6654 118.903C53.7391 118.461 53.5965 118.014 53.2839 117.705L44.7856 109.295C43.9857 108.504 44.4281 107.123 45.5309 106.96L57.2253 105.233C57.6533 105.169 58.0235 104.894 58.2159 104.495L63.3594 93.7803C63.8387 92.784 65.2156 92.8016 65.6916 93.8076Z" fill="#D8DEE8"/>
<path d="M106.813 94.3057L111.52 104.626C111.694 105.007 112.03 105.272 112.416 105.333L122.776 106.979C123.733 107.131 124.112 108.414 123.422 109.153L115.956 117.122C115.677 117.42 115.55 117.846 115.616 118.261L117.389 129.46C117.554 130.503 116.542 131.325 115.675 130.849L106.294 125.706C105.943 125.514 105.524 125.52 105.172 125.725L95.6025 131.294C94.7017 131.82 93.6454 131.027 93.8185 129.954L95.665 118.467C95.7339 118.043 95.6009 117.61 95.3124 117.314L87.4408 109.218C86.7003 108.458 87.109 107.128 88.1316 106.971L98.9669 105.308C99.3644 105.248 99.7074 104.982 99.8853 104.597L104.654 94.2801C105.095 93.3222 106.372 93.3383 106.813 94.3057Z" fill="url(#paint27_linear)"/>
<path d="M144.999 94.7686L149.377 104.721C149.539 105.087 149.85 105.342 150.21 105.401L159.85 106.99C160.739 107.138 161.095 108.376 160.451 109.087L153.502 116.773C153.243 117.059 153.124 117.471 153.187 117.871L154.836 128.676C154.99 129.681 154.049 130.473 153.241 130.013L144.515 125.046C144.19 124.86 143.799 124.866 143.472 125.063L134.578 130.426C133.739 130.931 132.76 130.167 132.92 129.132L134.637 118.06C134.701 117.65 134.578 117.235 134.308 116.947L126.998 109.146C126.31 108.413 126.69 107.133 127.639 106.981L137.705 105.379C138.073 105.32 138.392 105.063 138.557 104.693L142.989 94.7446C143.403 93.8204 144.589 93.8364 144.999 94.7686Z" fill="url(#paint28_linear)"/>
<path d="M180.554 95.2011L184.635 104.809C184.785 105.163 185.075 105.409 185.412 105.467L194.404 107.002C195.234 107.143 195.566 108.339 194.965 109.026L188.481 116.449C188.239 116.726 188.129 117.123 188.187 117.509L189.725 127.945C189.868 128.917 188.991 129.68 188.238 129.236L180.1 124.434C179.796 124.255 179.433 124.261 179.129 124.45L170.84 129.622C170.06 130.109 169.146 129.371 169.295 128.373L170.893 117.689C170.953 117.293 170.839 116.893 170.587 116.616L163.777 109.082C163.137 108.374 163.49 107.139 164.373 106.994L173.75 105.446C174.094 105.39 174.391 105.142 174.545 104.785L178.675 95.1787C179.065 94.2849 180.172 94.2993 180.554 95.2011Z" fill="#D8DEE8"/>
<path d="M213.739 95.6032L217.554 104.89C217.695 105.233 217.966 105.47 218.282 105.526L226.69 107.01C227.468 107.147 227.777 108.304 227.216 108.969L221.152 116.146C220.926 116.414 220.824 116.798 220.877 117.171L222.316 127.263C222.451 128.203 221.628 128.94 220.926 128.51L213.321 123.862C213.037 123.689 212.697 123.694 212.412 123.878L204.67 128.871C203.941 129.34 203.088 128.626 203.228 127.662L204.72 117.338C204.774 116.957 204.669 116.568 204.435 116.3L198.076 109.02C197.478 108.336 197.808 107.143 198.634 107.002L207.389 105.507C207.711 105.453 207.988 105.212 208.131 104.868L211.991 95.5824C212.348 94.719 213.382 94.7334 213.739 95.6032Z" fill="#D8DEE8"/>
<g opacity="0.1">
<path opacity="0.1" d="M201.498 114.757C177.39 108.2 161.191 141.048 133.161 133.833C108.855 127.578 108.175 100.49 79.287 81.2127C77.3075 79.8912 75.2911 78.669 73.2411 77.5365L42.2355 76.7004C32.5815 76.4409 24.6345 84.2224 24.6345 94.0879V131.479C24.6345 141.342 32.5815 149.05 42.2355 148.698L227.734 141.927C218.819 123.482 209.384 116.902 201.498 114.757Z" fill="#97A6B7"/>
</g>
<path d="M65.6916 93.8076L70.7662 104.525C70.9538 104.921 71.3144 105.195 71.7328 105.259L82.895 106.97C83.9257 107.128 84.336 108.459 83.5907 109.225L75.5476 117.498C75.2478 117.807 75.11 118.249 75.1805 118.68L77.0911 130.305C77.269 131.387 76.1791 132.239 75.2446 131.748L65.1306 126.415C64.7523 126.215 64.3003 126.223 63.922 126.436L53.5981 132.23C52.6251 132.776 51.4855 131.954 51.6714 130.838L53.6654 118.903C53.7391 118.461 53.5965 118.014 53.2839 117.705L44.7856 109.295C43.9857 108.504 44.4281 107.123 45.5309 106.96L57.2253 105.233C57.6533 105.169 58.0235 104.894 58.2159 104.495L63.3594 93.7803C63.8387 92.784 65.2156 92.8016 65.6916 93.8076Z" fill="url(#paint29_linear)"/>
<path d="M206.288 62.5629L211.162 72.4316C211.343 72.7968 211.691 73.0499 212.095 73.1092L222.992 74.6917C224.009 74.8391 224.416 76.0885 223.68 76.8045L215.794 84.4867C215.502 84.7718 215.369 85.1819 215.438 85.584L217.299 96.4297C217.472 97.4421 216.41 98.2141 215.501 97.7352L205.754 92.6142C205.393 92.4252 204.962 92.4252 204.6 92.6142L194.853 97.7352C193.944 98.2125 192.881 97.4421 193.054 96.4297L194.915 85.584C194.984 85.1819 194.851 84.7718 194.559 84.4867L186.673 76.8045C185.938 76.0885 186.343 74.8391 187.361 74.6917L198.259 73.1092C198.663 73.0499 199.012 72.7968 199.192 72.4316L204.066 62.5629C204.518 61.6419 205.832 61.6419 206.288 62.5629Z" fill="white"/>
<path d="M206.772 62.5629L211.646 72.4316C211.827 72.7968 212.175 73.0499 212.579 73.1092L223.477 74.6917C224.493 74.8391 224.9 76.0885 224.164 76.8045L216.278 84.4867C215.986 84.7718 215.853 85.1819 215.922 85.584L217.783 96.4297C217.956 97.4421 216.894 98.2141 215.985 97.7352L206.238 92.6142C205.877 92.4252 205.446 92.4252 205.084 92.6142L195.337 97.7352C194.428 98.2125 193.365 97.4421 193.538 96.4297L195.399 85.584C195.468 85.1819 195.335 84.7718 195.044 84.4867L187.158 76.8045C186.422 76.0885 186.827 74.8391 187.845 74.6917L198.743 73.1092C199.147 73.0499 199.496 72.7968 199.676 72.4316L204.55 62.5629C205.002 61.6419 206.316 61.6419 206.772 62.5629Z" fill="url(#paint30_linear)"/>
<g opacity="0.3">
<path opacity="0.3" d="M213.337 90.2243C209.596 86.67 205.383 86.8686 203.683 82.76C201.777 78.158 205.835 74.9352 205.14 69.2889C204.971 67.9209 204.518 66.3592 203.511 64.6613L199.674 72.43C199.493 72.7952 199.145 73.0483 198.741 73.1076L187.843 74.6901C186.827 74.8375 186.42 76.0869 187.156 76.8029L195.042 84.4851C195.333 84.7702 195.466 85.1803 195.398 85.5823L193.537 96.4281C193.364 97.4404 194.426 98.2125 195.335 97.7336L205.082 92.6126C205.443 92.4236 205.874 92.4236 206.236 92.6126L215.983 97.7336C216.512 98.0123 217.092 97.8665 217.451 97.4965C216.485 93.9581 214.907 91.7172 213.337 90.2243Z" fill="url(#paint31_linear)"/>
</g>
<path d="M219.444 80.974C219.444 80.974 220.468 79.8671 220.883 78.9878C221.298 78.1084 222.095 78.1356 222.287 78.4752C222.478 78.8148 221.728 80.1859 221.301 80.5896C220.872 80.9948 219.444 80.974 219.444 80.974Z" fill="url(#paint32_linear)"/>
<path d="M185.851 75.0842L186.62 74.5075C186.62 74.5075 187.103 74.8423 187.693 74.7958C188.015 74.7702 188.441 74.964 188.537 75.0665C188.634 75.1691 189.082 75.4141 188.44 75.3501C187.798 75.286 187.696 75.4654 187.784 75.7841C187.874 76.1045 188.409 77.0015 188.68 77.1937C188.952 77.386 188.172 77.5141 187.851 77.3972C187.531 77.2802 187.018 77.0656 186.644 76.372C186.51 76.1189 185.851 75.0842 185.851 75.0842Z" fill="url(#paint33_linear)"/>
<path d="M176.483 87.9642L181.822 98.7747C182.019 99.1752 182.402 99.4523 182.844 99.5164L194.781 101.25C195.895 101.411 196.339 102.779 195.534 103.564L186.896 111.978C186.576 112.291 186.43 112.739 186.505 113.18L188.544 125.06C188.735 126.169 187.569 127.014 186.574 126.491L175.897 120.881C175.502 120.673 175.029 120.673 174.634 120.881L163.958 126.491C162.962 127.014 161.797 126.169 161.988 125.06L164.027 113.18C164.102 112.739 163.956 112.291 163.636 111.978L154.998 103.564C154.192 102.779 154.637 101.411 155.751 101.25L167.688 99.5164C168.13 99.4523 168.511 99.1752 168.71 98.7747L174.049 87.9642C174.545 86.9551 175.984 86.9551 176.483 87.9642Z" fill="white"/>
<path d="M177.013 87.9642L182.352 98.7747C182.549 99.1752 182.932 99.4523 183.375 99.5164L195.311 101.25C196.425 101.411 196.869 102.779 196.063 103.564L187.425 111.978C187.105 112.291 186.959 112.739 187.034 113.18L189.073 125.06C189.264 126.169 188.098 127.014 187.103 126.491L176.426 120.881C176.031 120.673 175.558 120.673 175.163 120.881L164.487 126.491C163.491 127.014 162.326 126.169 162.517 125.06L164.556 113.18C164.631 112.739 164.485 112.291 164.165 111.978L155.527 103.564C154.721 102.779 155.166 101.411 156.28 101.25L168.217 99.5164C168.659 99.4523 169.041 99.1752 169.239 98.7747L174.578 87.9642C175.075 86.9551 176.515 86.9551 177.013 87.9642Z" fill="url(#paint34_linear)"/>
<g opacity="0.3">
<path opacity="0.3" d="M184.204 118.265C180.107 114.371 175.492 114.589 173.628 110.09C171.539 105.049 175.986 101.519 175.224 95.3341C175.04 93.8364 174.543 92.1257 173.44 90.2644L169.238 98.7731C169.041 99.1736 168.657 99.4507 168.215 99.5148L156.279 101.248C155.165 101.41 154.721 102.778 155.525 103.563L164.163 111.977C164.484 112.289 164.63 112.738 164.554 113.178L162.515 125.059C162.325 126.167 163.49 127.013 164.485 126.489L175.162 120.88C175.558 120.671 176.031 120.671 176.425 120.88L187.102 126.489C187.682 126.793 188.317 126.635 188.711 126.23C187.653 122.355 185.925 119.899 184.204 118.265Z" fill="url(#paint35_linear)"/>
</g>
<path d="M153.514 167.66C152.903 168.275 152.656 168.937 152.877 169.324C153.031 169.592 153.37 169.662 153.741 169.733C154.328 169.845 154.939 169.814 156.195 169.46C157.369 169.129 158.058 168.935 158.058 168.653C158.058 168.389 157.455 168.185 156.926 168.004C156.178 167.75 155.521 167.679 155.07 167.66C154.552 167.66 154.033 167.66 153.514 167.66Z" fill="url(#paint36_linear)"/>
<path d="M171.754 157.676C171.48 157.794 171.127 158.004 171.033 158.35C170.884 158.897 171.469 159.46 172.402 160.338C173.102 160.998 174.048 161.889 174.378 161.664C174.58 161.527 174.46 161.032 174.349 160.572C174.216 160.018 173.92 159.159 173.189 158.219C173.189 158.217 173.189 158.217 171.754 157.676Z" fill="url(#paint37_linear)"/>
<path d="M154.853 166.303L153.539 167.759C153.405 167.908 153.472 168.149 153.666 168.203C153.953 168.283 154.355 168.349 154.722 168.245C154.802 168.222 154.874 168.173 154.935 168.115L156.246 166.835L154.853 166.303Z" fill="url(#paint38_linear)"/>
<path d="M172.482 156.797L171.773 157.817C171.672 157.961 171.72 158.16 171.876 158.245C171.978 158.301 172.099 158.36 172.227 158.406C172.432 158.48 172.663 158.426 172.809 158.262L173.576 157.397L172.482 156.797Z" fill="url(#paint39_linear)"/>
<path d="M159.76 135.432C160.433 136.838 161.244 138.866 161.738 141.405C161.945 142.472 162.914 147.847 160.831 154.325C158.893 160.354 155.323 164.192 153.424 165.97C153.693 166.198 154.065 166.465 154.548 166.689C155.319 167.048 156.025 167.136 156.476 167.154C162.277 163.016 165.09 158.328 166.367 155.776C170.675 147.168 169.595 138.717 167.712 135.144C167.093 133.969 166.394 133.335 165.604 133.052C163.064 132.145 160.119 135.067 159.76 135.432Z" fill="url(#paint40_linear)"/>
<path opacity="0.3" d="M167.712 135.144C167.093 133.969 166.394 133.335 165.604 133.052C163.065 132.145 160.121 135.067 159.762 135.432C160.425 136.819 161.222 138.812 161.717 141.301C163.491 141.717 165.969 142.706 167.178 145.043C169.132 148.823 166.322 153.354 165.74 154.295C164.458 156.364 163.681 156.17 161.786 159.145C160.355 161.392 160.246 162.371 159 163.457C157.535 164.734 155.706 165.108 154.23 165.19C153.94 165.485 153.671 165.746 153.429 165.973C153.698 166.201 154.07 166.468 154.552 166.693C155.323 167.051 156.03 167.139 156.481 167.157C162.281 163.02 165.094 158.331 166.372 155.779C170.675 147.168 169.593 138.717 167.712 135.144Z" fill="url(#paint41_linear)"/>
<path d="M163.041 135.118C163.354 135.752 163.895 136.697 164.793 137.633C167.069 140.005 169.199 139.781 171.611 141.735C171.908 141.975 174.045 143.747 174.835 146.329C176.354 151.301 171.94 156.204 171.451 156.732C171.735 156.995 172.164 157.335 172.748 157.618C173.286 157.878 173.777 158.003 174.141 158.067C180.469 152.289 183.561 145.286 181.455 140.737C180.305 138.256 177.587 136.451 175.579 135.118C172.294 132.939 169.161 131.95 167.12 131.466C165.761 132.683 164.402 133.9 163.041 135.118Z" fill="url(#paint42_linear)"/>
<path d="M166.816 121.929C166.91 124.725 166.263 126.175 167.171 128.458C167.824 130.098 168.906 131.224 169.726 131.926C169.26 132.821 168.172 134.61 166.046 136.007C163.48 137.695 160.927 137.807 159.925 137.799C157.801 136.707 154.581 134.65 151.996 130.985C150.244 128.501 148.319 125.775 148.828 122.297C149.474 117.881 153.57 115.522 154.732 114.852C155.496 114.411 160.773 111.371 163.999 113.606C166.594 115.403 166.745 119.837 166.816 121.929Z" fill="url(#paint43_linear)"/>
<path d="M184.455 125.102C184.54 124.65 184.864 124.322 185.048 124.136C185.263 123.92 185.306 123.953 185.446 123.777C185.799 123.332 185.714 122.872 185.848 122.856C185.965 122.843 186.172 123.173 186.159 123.516C186.143 123.899 185.864 124.013 185.916 124.226C185.989 124.524 186.653 124.741 187.241 124.629C187.922 124.501 188.256 123.952 188.522 124.091C188.716 124.192 188.703 124.554 188.701 124.584C188.671 125.262 187.765 125.973 186.88 126.066C186.371 126.119 186.182 125.935 185.577 126.089C185.177 126.189 185.037 126.329 184.835 126.246C184.508 126.113 184.375 125.534 184.455 125.102Z" fill="url(#paint44_linear)"/>
<path d="M184.553 124.863C179.103 125.24 175.849 123.824 173.887 122.469C169.436 119.393 168.563 114.503 163.401 113.188C162.461 112.947 160.821 112.529 159.926 113.367C158.067 115.107 160.26 121.483 164.121 125.403C164.974 126.268 168.047 129.295 173.116 129.979C179.614 130.856 184.277 127.191 185.08 126.537C185.335 126.25 185.412 125.848 185.28 125.496C185.093 124.999 184.593 124.873 184.553 124.863Z" fill="url(#paint45_linear)"/>
<path opacity="0.3" d="M157.588 133.426C156.054 131.974 156.78 131.073 154.892 128.156C152.969 125.185 151.584 125.129 150.697 123.127C150.239 122.09 149.955 120.602 150.462 118.464C149.684 119.51 149.051 120.779 148.83 122.297C148.32 125.773 150.245 128.501 151.997 130.985C154.583 134.65 157.803 136.707 159.927 137.799C160.928 137.807 163.482 137.695 166.048 136.007C167 135.381 167.742 134.676 168.316 134.008C167.532 134.439 166.615 134.817 165.559 135.044C165.046 135.153 160.401 136.089 157.588 133.426Z" fill="url(#paint46_linear)"/>
<path d="M156.181 111.826L155.737 113.325C155.594 113.804 155.307 114.229 154.913 114.536L153.735 115.457C153.735 115.457 157.327 114.855 159.045 113.181L157.995 112.851C157.884 112.816 157.809 112.714 157.809 112.598V111.496L156.181 111.826Z" fill="url(#paint47_linear)"/>
<path d="M157.473 112.584C157.644 112.545 158.883 112.749 159.236 112.153C159.715 111.344 159.237 110.051 159.189 109.853C158.987 109.017 158.914 108.89 158.758 108.714L158.539 108.482C158.539 108.482 158.526 108.472 158.51 108.461C158.357 108.357 157.787 108.185 157.663 108.179C157.271 108.16 156.471 109.568 156.012 111.738C155.976 111.815 155.939 111.893 155.902 111.974C155.81 112.179 157.461 112.662 157.473 112.584Z" fill="url(#paint48_linear)"/>
<path d="M159.473 108.08C159.293 108.743 158.792 109.367 158.602 109.438C158.578 109.447 158.437 109.508 158.292 109.637C158.272 109.654 158.253 109.675 158.232 109.705C157.976 110.085 158.51 110.753 158.332 110.907C158.202 111.017 157.799 110.716 157.714 110.819C157.634 110.915 157.949 111.243 157.856 111.36C157.785 111.448 157.578 111.296 157.392 111.41C157.299 111.466 157.304 111.533 157.166 111.744C157.088 111.865 156.988 111.993 156.919 112.06C156.586 112.388 155.898 112.358 155.815 112.169C155.793 112.116 155.831 112.087 155.834 111.932C155.834 111.932 155.838 111.788 155.785 111.607C155.709 111.347 155.429 111.102 155.164 110.779C154.675 110.181 154.61 109.766 154.594 109.627C154.587 109.577 154.586 109.54 154.584 109.515C154.557 108.985 154.748 108.265 155.086 107.883C155.652 107.242 156.389 107.814 157.264 107.263C158.274 106.627 158.115 105.347 158.575 105.332C159.082 105.315 159.803 106.854 159.473 108.08Z" fill="#26264F"/>
<path d="M158.134 110.686C158.032 110.42 157.689 110.553 157.61 110.841C157.532 111.129 157.732 111.504 158.019 111.52C158.306 111.535 158.274 111.044 158.134 110.686Z" fill="url(#paint49_linear)"/>
<path d="M122.857 189.509C127.958 189.509 132.093 187.822 132.093 185.741C132.093 183.66 127.958 181.974 122.857 181.974C117.757 181.974 113.622 183.66 113.622 185.741C113.622 187.822 117.757 189.509 122.857 189.509Z" fill="#B7C0CE"/>
<path d="M132.093 185.299C132.093 187.263 127.958 188.855 122.857 188.855C117.757 188.855 113.622 187.263 113.622 185.299C113.622 183.335 117.757 180.122 122.857 180.122C127.958 180.122 132.093 183.335 132.093 185.299Z" fill="white"/>
<path opacity="0.3" d="M132.093 185.299C132.093 183.335 127.957 180.122 122.857 180.122C120.503 180.122 118.353 180.808 116.723 181.738C116.609 181.977 116.556 182.216 116.577 182.441C116.683 183.547 118.486 184.226 119.522 184.45C122.128 185.014 123.401 183.457 125.55 183.516C126.879 183.553 128.72 184.219 130.904 187.045C131.66 186.529 132.093 185.933 132.093 185.299Z" fill="url(#paint50_linear)"/>
<path d="M123.362 181.906C122.994 181.998 122.649 181.994 122.325 181.913C122.032 181.838 121.83 181.567 121.83 181.264V170.857H123.883V181.253C123.883 181.562 123.667 181.831 123.362 181.906Z" fill="white"/>
<path opacity="0.65" d="M123.362 181.906C122.994 181.998 122.649 181.994 122.325 181.913C122.032 181.838 121.83 181.567 121.83 181.264V170.857H123.883V181.253C123.883 181.562 123.667 181.831 123.362 181.906Z" fill="url(#paint51_linear)"/>
<path d="M112.004 166.475L115.141 164.493C115.271 163.753 116.75 156.007 122.754 153.575C125.196 152.587 127.824 152.704 129.265 152.768C132.144 152.896 134.197 152.988 135.185 154.36C136.452 156.122 134.325 157.721 134.766 162.76C134.946 164.815 135.403 165.728 134.834 167.09C134.152 168.72 132.572 169.625 131.343 170.133C129.874 170.985 127.316 172.199 123.939 172.496C118.249 172.994 114.001 170.554 112.541 169.622C111.892 169.417 111.403 168.877 111.265 168.211C111.127 167.535 111.421 166.843 112.004 166.475Z" fill="url(#paint52_linear)"/>
<path d="M129.9 153.181C132.029 153.244 133.353 153.22 134.084 154.17C134.851 155.166 134.076 156.017 133.931 159.568C133.8 162.805 134.37 164.085 133.324 165.877C133.324 165.877 132.792 166.789 131.952 167.473C128.985 169.891 121.33 169.862 118.108 164.812C115.537 160.782 116.609 154.842 119.629 152.877C121.11 151.914 121.45 152.932 129.9 153.181Z" fill="url(#paint53_linear)"/>
<path d="M111.777 164.695L114.913 162.714C114.913 162.714 123.317 159.952 131.093 163.846C131.963 164.282 132.505 165.182 132.505 166.156C132.505 166.902 132.056 167.577 131.367 167.865C130.011 168.791 127.363 170.319 123.711 170.718C117.908 171.354 113.589 168.698 112.314 167.844C111.664 167.639 111.176 167.099 111.038 166.433C110.9 165.756 111.193 165.064 111.777 164.695Z" fill="url(#paint54_linear)"/>
<path d="M90.994 153.566C90.994 153.566 104.365 157.759 104.03 142.369L111.437 144.559C111.437 144.559 112.155 162.425 93.698 155.847L90.994 153.566Z" fill="url(#paint55_linear)"/>
<path d="M110.751 189.476H111.959C112.259 189.959 112.591 190.644 112.325 191.085C112.141 191.391 111.83 191.31 110.958 191.588C109.738 191.975 109.443 192.416 108.398 192.489C108.015 192.517 107.736 192.536 107.661 192.4C107.446 192.009 109.103 190.678 110.751 189.476Z" fill="url(#paint56_linear)"/>
<path d="M110.938 189.88C111.041 189.922 111.142 189.967 111.241 190.002C111.576 190.122 111.926 189.866 111.927 189.509C111.927 189.497 111.927 189.486 111.927 189.475C111.934 188.948 112.039 188.525 112.124 188.261C111.68 188.24 111.235 188.219 110.791 188.198C110.893 188.788 110.858 189.209 110.764 189.517C110.717 189.664 110.796 189.822 110.938 189.88Z" fill="url(#paint57_linear)"/>
<path d="M101.421 186.234H102.629C102.929 186.717 103.261 187.402 102.995 187.843C102.81 188.149 102.499 188.068 101.627 188.346C100.408 188.733 100.113 189.174 99.0676 189.247C98.6845 189.275 98.4056 189.294 98.3303 189.158C98.1155 188.765 99.7728 187.436 101.421 186.234Z" fill="url(#paint58_linear)"/>
<path d="M101.608 186.638C101.711 186.68 101.812 186.725 101.911 186.761C102.246 186.882 102.595 186.625 102.597 186.268C102.597 186.257 102.597 186.246 102.597 186.234C102.603 185.707 102.709 185.285 102.794 185.02C102.35 184.999 101.905 184.979 101.461 184.958C101.563 185.547 101.528 185.969 101.433 186.276C101.387 186.422 101.464 186.579 101.608 186.638Z" fill="url(#paint59_linear)"/>
<path d="M101.433 185.611C100.523 180.993 100.625 177.179 100.872 174.636C101.348 169.717 101.602 167.111 103.578 164.698C105.436 162.43 107.163 162.352 111.297 158.512C112.66 157.247 113.689 156.125 114.331 155.393C120.531 153.575 126.249 154.312 128.773 157.636C129.065 158.02 129.794 158.853 129.935 160.08C130.254 162.851 127.529 166.186 124.473 166.883C120.587 167.769 118.334 163.782 114.892 165.108C113.929 165.48 113.113 166.399 111.48 168.238C109.403 170.577 108.236 172.736 107.793 173.599C106.477 176.172 105.48 178.07 105.335 180.53C105.301 181.104 105.28 182.262 104.609 183.511C104.092 184.471 103.394 185.11 102.874 185.504C102.397 185.539 101.916 185.576 101.433 185.611Z" fill="url(#paint60_linear)"/>
<path d="M109.896 188.03C110.271 188.728 111.007 189.14 112.607 188.871C114.867 186.306 115.614 184.029 115.878 182.425C116.45 178.962 115.014 177.181 116.346 174.392C117.213 172.577 118.674 171.546 119.895 170.684C122.839 168.605 124.077 169.416 126.592 167.501C127.536 166.782 129.797 165.063 130.1 162.228C130.365 159.765 128.993 157.923 128.773 157.636C127.002 155.329 123.678 154.392 120.365 155.244C119.9 156.419 119.052 158.254 117.561 160.196C115.673 162.651 114.444 163.072 112.514 165.52C111.611 166.664 110.073 168.615 109.26 171.376C108.787 172.981 108.726 174.296 109.242 180.747C109.404 182.763 109.617 185.222 109.896 188.03Z" fill="url(#paint61_linear)"/>
<path d="M104.03 142.368C104.328 138.51 114.886 133.471 123.256 136.987C133.168 141.152 133.271 154.484 133.264 155.443C133.234 159.561 131.886 164.24 130.371 164.344C129.262 164.42 129.198 161.962 126.911 160.62C124.462 159.183 122.593 160.864 116.84 160.694C114.223 160.617 111.259 160.53 110.578 159.012C109.89 157.481 112.298 156.209 112.554 153.736C113.081 148.656 103.741 146.103 104.03 142.368Z" fill="url(#paint62_linear)"/>
<path opacity="0.3" d="M131.428 158.123C130.7 156.798 129.139 155.244 127.102 154.761C124.449 154.13 123.271 155.853 121.333 155.049C118.953 154.061 119.878 151.107 117.488 149.669C115.449 148.442 113.468 149.803 110.842 149.699C111.958 150.881 112.713 152.191 112.551 153.737C112.293 156.21 109.887 157.482 110.575 159.014C111.256 160.532 114.22 160.619 116.837 160.695C122.59 160.864 124.459 159.185 126.908 160.622C129.197 161.964 129.259 164.423 130.368 164.346C131.006 164.303 131.615 163.444 132.108 162.159C132.289 160.686 132.066 159.284 131.428 158.123Z" fill="url(#paint63_linear)"/>
<path d="M110.169 136.552L110.538 136.731C111.256 137.08 112.065 137.191 112.85 137.043L113.9 136.848C114.131 136.805 114.306 137.056 114.179 137.255C113.588 138.187 112.062 139.944 109.56 138.536L110.169 136.552Z" fill="url(#paint64_linear)"/>
<path d="M107.564 136.576C106.276 136.108 105.836 133.06 106.474 132.725C106.84 132.533 107.173 133.442 108.532 133.792C109.59 134.064 110.263 133.737 110.714 134.266C110.925 134.514 111.052 134.908 111.049 135.257C111.047 135.437 111.002 135.677 110.881 136.146C110.773 136.564 110.784 136.547 110.749 136.668C110.666 136.963 110.481 137.474 110.049 138.148C109.952 137.992 109.823 137.801 109.648 137.605C109.581 137.53 109.316 137.235 108.991 137.027C108.401 136.646 107.934 136.708 107.564 136.576Z" fill="url(#paint65_linear)"/>
<path d="M110.653 137.421C110.653 137.421 110.374 138.579 109.174 138.881C108.098 139.15 107.186 136.84 107.699 136.124C107.869 135.885 108.297 135.672 108.694 135.656C108.93 135.648 109.031 135.714 109.416 135.691C109.77 135.671 109.85 135.605 109.977 135.656C110.134 135.72 110.305 135.946 110.321 136.702C110.457 136.435 110.672 136.279 110.869 136.305C110.901 136.31 110.99 136.335 111.054 136.396C111.284 136.619 111.15 137.042 110.653 137.421Z" fill="url(#paint66_linear)"/>
<path d="M89.1222 189.664C89.0437 189.664 88.9747 189.608 88.9603 189.529L82.5393 155.035C82.5233 154.945 82.581 154.86 82.6707 154.842C82.7589 154.826 82.8454 154.884 82.8631 154.974L88.9571 187.713V152.723C88.9571 152.632 89.0308 152.558 89.1222 152.558C89.2136 152.558 89.2873 152.632 89.2873 152.723V189.499C89.2873 189.584 89.2232 189.654 89.1382 189.662C89.1318 189.664 89.127 189.664 89.1222 189.664Z" fill="#C47EB7"/>
<path d="M55.6113 190.695C55.6065 190.695 55.6016 190.695 55.5968 190.695C55.5119 190.689 55.4462 190.617 55.4462 190.532V156.753C55.4462 156.662 55.5199 156.588 55.6113 156.588C55.7026 156.588 55.7764 156.662 55.7764 156.753V188.535L61.0818 156.604C61.0962 156.515 61.1796 156.454 61.2709 156.47C61.3607 156.484 61.4216 156.569 61.4056 156.659L55.7732 190.558C55.7603 190.638 55.6914 190.695 55.6113 190.695Z" fill="#C47EB7"/>
<path d="M138.136 201.873C138.059 201.873 137.992 201.818 137.976 201.743L130.118 164.556C130.099 164.466 130.157 164.38 130.245 164.36C130.335 164.341 130.421 164.399 130.441 164.487L137.972 200.132V164.48C137.972 164.389 138.046 164.315 138.137 164.315C138.229 164.315 138.303 164.389 138.303 164.48V201.708C138.303 201.793 138.238 201.863 138.155 201.871C138.147 201.873 138.141 201.873 138.136 201.873Z" fill="#C47EB7"/>
<path d="M99.0503 208.374C99.0455 208.374 99.0391 208.374 99.0343 208.373C98.951 208.365 98.8868 208.294 98.8868 208.209V170.836C98.8868 170.745 98.9606 170.671 99.0519 170.671C99.1433 170.671 99.217 170.745 99.217 170.836V206.574L107.505 165.831C107.523 165.741 107.611 165.685 107.699 165.703C107.789 165.72 107.845 165.808 107.828 165.896L99.2138 208.242C99.1946 208.32 99.1273 208.374 99.0503 208.374Z" fill="#C47EB7"/>
<path d="M138.485 164.027V164.669L98.9604 171.112L55.2538 156.897C55.2538 156.684 55.2538 156.47 55.2538 156.255C62.0996 154.238 138.485 164.027 138.485 164.027Z" fill="#B7C0CE"/>
<path d="M91.552 152.933L138.485 164.027L98.9604 170.47L55.2538 156.255L91.552 152.933Z" fill="#D8DEE8"/>
<path d="M101.959 156.632L110.145 157.892V158.45L106.739 160.09L99.6047 158.289L101.959 156.632Z" fill="#B7C0CE"/>
<path d="M101.767 155.419L110.145 157.892L106.739 159.532L99.6047 157.732L101.767 155.419Z" fill="white"/>
<path d="M104.024 161.908L102.716 144.658C102.695 144.386 102.461 144.131 102.152 144.043L79.7614 137.754C79.561 137.698 79.1763 137.753 79.0241 137.847C78.8718 137.942 78.6987 137.921 78.7067 138.097L79.6428 154.038C79.6588 154.304 79.8768 154.554 80.1749 154.652L103.543 162.238L104.024 161.908Z" fill="url(#paint67_linear)"/>
<path d="M103.543 162.238L102.187 144.844C102.166 144.572 101.932 144.317 101.623 144.231L79.2326 137.94C79.0322 137.884 78.8271 137.907 78.6748 138.001C78.5225 138.096 78.4376 138.253 78.4456 138.429L79.1204 154.211C79.1316 154.482 79.3576 154.741 79.6638 154.836L103.543 162.238Z" fill="url(#paint68_linear)"/>
<path opacity="0.3" d="M103.543 162.238L79.6638 154.838C79.3561 154.743 79.1317 154.484 79.1204 154.213L78.9169 149.452C86.0063 153.973 94.931 155.719 103.239 158.328L103.543 162.238Z" fill="url(#paint69_linear)"/>
<path d="M91.6612 162.766L92.5076 163.292C92.5076 163.292 96.5291 161.509 96.7695 161.403C96.808 161.386 96.9731 161.181 96.7695 161.096C95.6924 160.647 91.5795 159.585 91.5795 159.585L89.4397 160.601L91.6612 162.766Z" fill="white"/>
<path d="M91.6613 162.461L92.5076 162.986C92.5076 162.986 96.5291 161.203 96.7696 161.097C97.01 160.99 91.5795 159.279 91.5795 159.279L89.4397 160.295L91.6613 162.461Z" fill="url(#paint70_linear)"/>
<path d="M87.4776 149.142C87.4776 149.142 85.4452 160.013 85.2304 160.618C85.0333 161.178 90.7907 162.992 92.1675 163.337C92.2813 163.366 92.4528 163.316 92.5057 163.292C92.8984 163.327 91.0696 150.165 91.0696 150.165L90.9365 150.138L87.4776 149.142Z" fill="white"/>
<path d="M87.4775 149.142C87.4775 149.142 85.0876 160.048 84.8744 160.655C84.6596 161.261 91.5439 163.221 92.1514 163.329C92.5441 163.364 90.938 150.14 90.938 150.14L87.4775 149.142Z" fill="url(#paint71_linear)"/>
<path d="M108.727 156.165L108.521 157.987C108.521 157.987 116.877 161.584 123.957 157.987C131.037 154.389 128.209 141.024 128.209 141.024C128.209 141.024 125.943 136.904 120.751 137.481C115.56 138.057 118.44 144.589 119.355 148.913C120.27 153.236 118.621 157.269 108.727 156.165Z" fill="url(#paint72_linear)"/>
<path d="M108.727 156.166L107.4 155.92C107.137 155.872 106.866 155.924 106.638 156.065L105.18 156.857C104.849 157.037 104.938 157.541 105.309 157.588C105.571 157.62 105.886 157.628 106.258 157.591C107.541 157.463 107.93 157.935 108.52 157.987C109.111 158.038 109.881 156.885 108.727 156.166Z" fill="url(#paint73_linear)"/>
<path d="M81.2872 128.293L81.8946 129.669L83.2346 130.18C83.3805 130.236 83.443 130.434 83.3388 130.514L82.3851 131.27L82.64 132.731C82.6672 132.89 82.5166 132.97 82.3851 132.866L81.1718 131.909L79.9824 132.283C79.8542 132.323 79.7035 132.171 79.7276 132.026L79.9488 130.692L78.9951 129.497C78.8925 129.369 78.9486 129.201 79.0896 129.212L80.4008 129.318L80.9778 128.219C81.0387 128.104 81.223 128.145 81.2872 128.293Z" fill="url(#paint74_linear)"/>
<path d="M86.4167 129.472L87.0242 130.848L88.3641 131.358C88.51 131.415 88.5725 131.612 88.4683 131.693L87.5146 132.449L87.7695 133.91C87.7967 134.069 87.6461 134.149 87.5146 134.045L86.3013 133.088L85.1119 133.462C84.9837 133.502 84.833 133.35 84.8571 133.205L85.0783 131.871L84.1246 130.676C84.022 130.548 84.0781 130.38 84.2192 130.391L85.5303 130.497L86.1073 129.398C86.1682 129.283 86.3526 129.324 86.4167 129.472Z" fill="url(#paint75_linear)"/>
<path d="M91.9307 130.649L92.5382 132.025L93.8782 132.536C94.024 132.592 94.0865 132.79 93.9823 132.871L93.0287 133.627L93.2835 135.087C93.3108 135.246 93.1601 135.326 93.0287 135.222L91.8153 134.266L90.626 134.639C90.4978 134.679 90.3471 134.527 90.3711 134.383L90.5923 133.048L89.6386 131.853C89.536 131.725 89.5921 131.557 89.7332 131.568L91.0443 131.674L91.6213 130.575C91.6823 130.46 91.865 130.502 91.9307 130.649Z" fill="url(#paint76_linear)"/>
<path d="M97.1573 131.892L97.7648 133.268L99.1047 133.779C99.2506 133.835 99.3131 134.033 99.2089 134.114L98.2552 134.87L98.5101 136.33C98.5373 136.489 98.3867 136.569 98.2552 136.465L97.0403 135.512L95.851 135.885C95.7227 135.925 95.5721 135.773 95.5961 135.629L95.8173 134.295L94.8636 133.1C94.761 132.971 94.8171 132.803 94.9582 132.815L96.2693 132.92L96.8463 131.821C96.9088 131.703 97.0916 131.745 97.1573 131.892Z" fill="url(#paint77_linear)"/>
<path d="M97.688 139.148L79.7521 134.661C79.3033 134.549 78.941 134.071 78.941 133.596C78.941 133.122 79.3001 132.827 79.7457 132.936L97.5309 137.286C98.0294 137.408 98.4718 137.922 98.5167 138.438C98.5616 138.955 98.1897 139.274 97.688 139.148Z" fill="#D8DEE8"/>
<path d="M95.4424 136.606L79.6944 132.925C79.2777 132.822 78.9395 133.1 78.9395 133.543V133.651C78.9395 134.098 79.2793 134.544 79.6992 134.65L93.0622 137.794L95.4424 136.606Z" fill="url(#paint78_linear)"/>
<path d="M231.693 111.022C231.863 110.759 232.174 110.199 232.193 109.446C232.232 107.983 231.146 106.841 231.001 106.907C230.922 106.942 231.021 107.372 231.078 107.561C231.195 107.956 231.32 107.995 231.308 108.176C231.288 108.549 230.747 108.563 230.462 109.06C230.257 109.417 230.241 109.926 230.462 110.328C230.829 110.998 231.659 111.02 231.693 111.022Z" fill="url(#paint79_linear)"/>
<path d="M254.886 142.795L254.468 141.36L256.21 140.069L257.297 139.664L256.652 141.672L254.886 142.795Z" fill="url(#paint80_linear)"/>
<path d="M252.729 171.697C252.729 171.697 253.682 174.093 253.431 175.155C254.453 175.134 255.115 175.004 255.115 175.004C255.115 175.004 254.703 173.912 254.623 173.37C254.514 172.638 254.522 171.456 254.522 171.456L252.729 171.697Z" fill="url(#paint81_linear)"/>
<path d="M242.225 177.3C242.286 177.373 242.397 177.529 242.405 177.74C242.409 177.854 242.384 177.948 242.35 178.035C242.188 178.462 241.932 178.519 241.658 178.972C241.489 179.249 241.522 179.332 241.368 179.457C241.164 179.622 240.919 179.632 240.706 179.633C240.345 179.638 239.827 179.625 239.175 179.547C239.516 179.106 239.88 178.66 240.268 178.208C240.438 178.009 240.606 177.817 240.776 177.628L241.781 177.288C241.929 177.292 242.076 177.296 242.225 177.3Z" fill="#26264F"/>
<path d="M241.389 172.422C241.389 172.422 240.813 175.419 241.546 176.258C242.169 177.098 241.244 176.499 241.244 176.499L240.142 177.461L239.48 178.603C239.48 178.603 240.089 175.671 239.927 174.506C239.765 173.342 239.683 172.557 239.683 172.557L241.389 172.422Z" fill="url(#paint82_linear)"/>
<path d="M239.221 139.64C239.221 139.64 237.678 141.021 237.678 146.705C237.678 152.39 238.409 164.734 238.409 164.734L239.579 173.571C239.579 173.571 240.792 173.614 241.605 173.37C242.336 170.04 243.528 164.408 242.959 159.697C242.716 154.581 244.992 148.166 244.992 148.166C244.992 148.166 246.942 154.663 248.324 157.911C249.706 161.16 252.336 171.336 252.579 172.067C254.197 172.212 254.886 171.786 254.886 171.786C254.886 171.786 253.849 160.835 252.874 156.693C251.9 152.55 251.98 142.561 250.355 139.72C246.697 138.259 239.221 139.64 239.221 139.64Z" fill="url(#paint83_linear)"/>
<path d="M239.221 139.64C239.221 139.64 237.678 141.021 237.678 146.705C237.678 152.39 238.409 164.734 238.409 164.734L239.579 173.571C239.579 173.571 240.792 173.614 241.605 173.37C242.336 170.04 243.528 164.408 242.959 159.697C242.716 154.581 244.99 148.166 244.99 148.166C244.99 148.166 246.941 154.663 248.322 157.911C249.704 161.16 252.334 171.336 252.578 172.067C254.194 172.212 254.884 171.786 254.884 171.786C254.884 171.786 253.847 160.835 252.873 156.693C251.898 152.55 251.978 142.561 250.353 139.72C246.697 138.259 239.221 139.64 239.221 139.64Z" fill="url(#paint84_linear)"/>
<path opacity="0.25" d="M247.242 150.056C247.723 153.183 248.687 154.868 251.094 157.032C253.019 158.475 251.575 161.604 252.298 164.008C252.538 164.73 253.261 165.451 253.502 166.174C254.397 167.964 253.561 170.154 253.966 172.051C254.598 171.964 254.885 171.788 254.885 171.788C254.885 171.788 253.848 160.836 252.873 156.694C251.899 152.552 251.979 142.563 250.354 139.722C246.697 138.259 239.22 139.64 239.22 139.64C239.22 139.64 237.677 141.021 237.677 146.705C237.677 147.167 237.681 147.673 237.691 148.211C239.294 149.629 242.572 149.944 244.594 148.373C244.716 148.281 244.846 148.225 244.981 148.198C244.987 148.181 244.992 148.168 244.992 148.168C244.992 148.168 244.995 148.179 245 148.197C245.92 148.027 247.034 149.222 247.242 150.056Z" fill="url(#paint85_linear)"/>
<path d="M253.181 176.065C253.181 176.065 252.944 176.065 252.963 176.371C252.982 176.676 252.855 177.732 254.062 177.782C255.269 177.831 255.455 177.697 255.495 177.697C255.535 177.697 255.178 176.688 255.178 176.688L254.792 176.193L253.753 176.084L253.181 176.065Z" fill="#26264F"/>
<path d="M255.858 177.123C255.832 176.869 255.689 176.468 255.545 176.145C255.332 175.666 255.507 175.486 255.303 175.049C255.232 174.898 255.164 174.754 255.016 174.613C254.982 174.581 254.649 174.274 254.163 174.288C254.067 174.291 253.921 174.298 253.763 174.383C253.575 174.482 253.482 174.633 253.402 174.764C253.275 174.971 253.304 175.035 253.112 175.626C253.096 175.674 253.062 175.776 253.037 175.919C253.016 176.028 253.008 176.119 253.005 176.182C253.322 176.182 254.538 176.231 254.795 176.419C255.053 176.606 255.181 176.923 255.181 177.239C255.181 177.556 255.34 177.703 255.499 177.694C255.638 177.687 255.919 177.425 255.858 177.123Z" fill="#444B8C"/>
<path d="M241.234 175.837C241.507 175.842 241.706 176.058 241.856 176.579C242.007 177.099 242.728 177.561 241.887 177.45C241.044 177.34 240.433 178.533 240.132 178.973C239.83 179.414 239.023 179.806 239.043 179.376C239.064 178.945 239.42 178.743 239.519 178.302C239.619 177.862 240.614 175.828 241.234 175.837Z" fill="#444B8C"/>
<path d="M255.524 140.325C255.725 139.77 256.972 136.121 254.955 132.794C253.304 130.069 250.448 129.18 250.039 129.06C247.56 128.328 246.318 129.268 245.534 128.403C244.207 126.934 245.71 121.934 248.619 120.931C251.899 119.802 255.832 124.144 257.427 126.995C259.519 130.737 259.004 134.456 258.882 135.222C258.568 137.213 257.837 138.73 257.296 139.662C256.706 139.885 256.116 140.106 255.524 140.325Z" fill="url(#paint86_linear)"/>
<path d="M246.962 120.226C244.035 120.109 241.778 120.156 240.502 121.429C239.156 122.774 240.517 124.293 240.223 127.81C239.776 133.197 236.341 134.512 236.083 139.978C235.997 141.818 236.308 143.324 236.55 144.231C237.303 145.169 238.537 146.492 240.358 147.599C243.008 149.211 244.545 148.929 248.35 149.97C254.574 151.672 255.128 153.699 258.214 153.183C261.333 152.661 264.069 150.037 263.739 148.597C263.54 147.734 262.284 147.979 260.836 146.662C258.97 144.966 259.69 143.348 258.272 141.525C256.234 138.908 253.396 140.508 251.658 138.24C249.902 135.944 250.599 131.423 252.08 128.957C253.046 127.348 253.461 125.461 254.284 123.772C254.353 123.631 254.431 123.402 254.396 123.114C254.263 122.015 252.429 121.418 251.04 120.98C248.922 120.316 247.202 120.236 246.962 120.226Z" fill="url(#paint87_linear)"/>
<path d="M244.496 120.104L245.073 119.926C245.073 119.926 245.224 120.708 247.08 120.806C248.111 120.806 248.776 120.229 248.776 120.229L249.17 120.516C249.17 120.516 248.305 121.596 246.928 121.568C245.154 121.533 244.496 120.104 244.496 120.104Z" fill="url(#paint88_linear)"/>
<path d="M245.671 117.729C245.782 116.87 246.462 116.321 246.609 116.204C247.229 115.712 247.356 115.662 247.568 115.621L247.858 115.576C247.858 115.576 247.874 115.576 247.89 115.578C248.06 115.587 248.571 115.787 248.662 115.852C248.959 116.06 248.741 117.535 247.842 119.369C247.806 119.524 247.771 119.68 247.736 119.835C248.52 119.973 248.712 120.114 248.718 120.226C248.731 120.469 247.874 120.782 247.08 120.803C246.083 120.828 245.025 120.399 245.046 120.08C245.054 119.951 245.242 119.792 245.966 119.635C246.08 119.476 246.192 119.318 246.306 119.158C246.205 119.034 245.59 118.36 245.671 117.729Z" fill="url(#paint89_linear)"/>
<path d="M246.902 117.405C247.128 117.271 247.3 117.561 247.194 117.815C247.088 118.07 246.729 118.229 246.513 118.076C246.296 117.924 246.599 117.588 246.902 117.405Z" fill="url(#paint90_linear)"/>
<path d="M276.194 117.4C273.219 114.174 266.298 115.059 262.459 117.65C260.675 118.855 259.76 120.276 257.653 120.396C256.05 120.487 253.501 119.885 252.158 118.15C251.988 117.932 251.312 117.014 250.297 115.86C249.85 115.35 249.404 114.871 248.713 114.764C248.539 114.737 247.955 114.642 247.569 115.019C247.256 115.323 247.179 115.855 247.272 116.236C247.329 116.465 247.399 116.489 247.389 116.638C247.361 117.059 246.594 117.242 246.638 117.453C246.668 117.604 247.067 117.549 247.136 117.738C247.212 117.947 246.774 118.126 246.585 118.65C246.232 118.885 246.009 119.473 245.932 120.258C245.819 121.413 245.936 122.352 246.154 123.058C247.208 126.46 247.962 128.895 249.787 130.253C252.203 132.052 254.379 130.391 260.526 130.128C268.943 129.768 271.041 132.619 274.066 130.67C277.84 128.235 279.283 120.75 276.194 117.4Z" fill="url(#paint91_linear)"/>
<path d="M232.049 110.817C231.973 111.52 231.72 114.634 233.868 117.263C235.876 119.718 238.72 120.21 239.247 120.288C241.804 120.675 242.906 119.574 243.799 120.324C245.316 121.597 244.509 126.757 241.765 128.147C238.672 129.713 234.181 125.949 232.211 123.342C229.627 119.92 229.628 116.167 229.643 115.39C229.681 113.375 230.199 111.772 230.608 110.774C230.776 110.723 231.031 110.668 231.345 110.678C231.646 110.691 231.888 110.758 232.049 110.817Z" fill="url(#paint92_linear)"/>
<path opacity="0.25" d="M258.308 151.125C257.56 150.357 258.384 148.812 257.278 147.662C256.252 146.595 255.09 147.457 253.437 146.539C251.318 145.361 251.902 143.205 249.879 142.046C248.424 141.213 247.739 142.108 245.478 141.671C243.219 141.235 240.469 139.678 239.109 136.898C238.532 135.715 238.319 134.541 238.29 133.492C237.274 135.305 236.221 137.043 236.082 139.976C235.995 141.817 236.306 143.322 236.548 144.229C237.301 145.168 238.536 146.491 240.356 147.597C243.006 149.209 244.543 148.927 248.348 149.968C254.572 151.671 255.127 153.697 258.212 153.181C260.206 152.848 262.038 151.656 263.019 150.463C260.144 151.745 258.852 151.68 258.308 151.125Z" fill="url(#paint93_linear)"/>
<path d="M84.5252 104.194C81.0983 103.974 77.8622 101.804 76.4693 98.4624L56.8359 51.3359C55.0487 47.0447 57.0651 42.1881 61.3624 40.4661C65.6901 38.7314 72.4365 40.7753 74.2702 45.1114L94.4116 92.7488C96.311 97.2402 94.1696 102.151 89.6528 103.697C88.5404 104.077 85.6552 104.266 84.5252 104.194Z" fill="url(#paint94_linear)"/>
<path opacity="0.3" d="M61.3624 40.4661C65.6901 38.7314 72.4365 40.7753 74.2702 45.1114L92.6854 88.669C89.6031 87.8777 85.955 87.9482 82.4527 84.8792C76.6216 79.7694 79.4907 73.2229 74.8696 67.3907C72.7571 64.7254 68.8493 61.919 60.8927 61.0733L56.8359 51.3359C55.0487 47.0447 57.0651 42.1881 61.3624 40.4661Z" fill="url(#paint95_linear)"/>
<path d="M49.5428 31.1133C49.7111 31.1133 49.8794 31.1261 50.0445 31.1485L62.1813 31.0156V62.5501L50.4628 62.3899C50.1615 62.4668 49.8554 62.5069 49.5428 62.5069C45.3834 62.5069 42.011 55.4798 42.011 46.8109C42.011 38.142 45.3834 31.1133 49.5428 31.1133Z" fill="url(#paint96_linear)"/>
<path d="M62.1813 31.0156C57.5843 41.5169 57.5843 51.9799 62.1813 62.5501L152.457 91.5555L153.39 3.0466L62.1813 31.0156Z" fill="url(#paint97_linear)"/>
<path opacity="0.25" d="M128.088 65.5407C119.504 62.2906 116.837 49.8463 106.872 49.4282C99.0535 49.0998 96.6973 56.6876 89.0356 55.869C81.1928 55.0313 79.8753 46.5818 71.0933 43.6025C67.1005 42.249 62.9219 42.4988 58.8683 43.6441C58.3233 49.9152 59.4229 56.207 62.183 62.5533L152.459 91.5587L147.118 61.5074C138.216 66.694 132.249 67.1152 128.088 65.5407Z" fill="url(#paint98_linear)"/>
<path d="M156.835 92.7216C168.962 92.7216 178.794 72.2305 178.794 46.9534C178.794 21.6764 168.962 1.1853 156.835 1.1853C144.707 1.1853 134.875 21.6764 134.875 46.9534C134.875 72.2305 144.707 92.7216 156.835 92.7216Z" fill="url(#paint99_linear)"/>
<path d="M156.834 91.1678C159.409 91.1678 161.94 90.0882 164.353 87.9594C166.811 85.7922 169.034 82.6591 170.96 78.6434C175.009 70.2035 177.239 58.9493 177.239 46.9518C177.239 34.9544 175.009 23.7001 170.96 15.2603C169.034 11.2462 166.811 8.11147 164.353 5.94424C161.938 3.81545 159.409 2.73584 156.834 2.73584C154.26 2.73584 151.729 3.81545 149.315 5.94424C146.858 8.11147 144.635 11.2446 142.709 15.2603C141.016 18.789 139.641 22.8096 138.613 27.1712C137.183 33.2404 141.314 39.5772 141.314 46.5578C141.314 53.9805 137.283 61.5138 138.892 67.8761C139.884 71.7973 141.163 75.4238 142.707 78.6418C144.634 82.6559 146.857 85.7906 149.314 87.9578C151.729 90.0882 154.26 91.1678 156.834 91.1678Z" fill="url(#paint100_linear)"/>
<path d="M158.643 47.5541C158.643 59.1495 150.96 68.3566 141.615 68.1212C132.417 67.8905 125.063 58.5664 125.063 47.2946C125.063 36.0212 132.417 26.8124 141.615 26.7227C150.958 26.6314 158.643 35.9571 158.643 47.5541Z" fill="url(#paint101_linear)"/>
<path opacity="0.3" d="M157.166 47.3651C157.166 55.9764 153.422 62.8128 148.87 62.6382C144.388 62.4668 140.804 55.5439 140.804 47.1729C140.804 38.8019 144.387 31.9638 148.87 31.8965C153.422 31.8293 157.166 38.7538 157.166 47.3651Z" fill="#97A6B7"/>
</g>
<defs>
<linearGradient id="paint0_linear" x1="56.1847" y1="72.0285" x2="95.1043" y2="72.0285" gradientUnits="userSpaceOnUse">
<stop stop-color="#311944"/>
<stop offset="1" stop-color="#893976"/>
</linearGradient>
<linearGradient id="paint1_linear" x1="17.9108" y1="36.5071" x2="73.1928" y2="51.5621" gradientUnits="userSpaceOnUse">
<stop stop-color="#311944"/>
<stop offset="1" stop-color="#893976"/>
</linearGradient>
<linearGradient id="paint2_linear" x1="101.102" y1="-0.882286" x2="125.563" y2="134.502" gradientUnits="userSpaceOnUse">
<stop stop-color="#FF9085"/>
<stop offset="1" stop-color="#FB6FBB"/>
</linearGradient>
<linearGradient id="paint3_linear" x1="92.7225" y1="-0.634721" x2="117.487" y2="136.435" gradientUnits="userSpaceOnUse">
<stop stop-color="#FF9085"/>
<stop offset="1" stop-color="#FB6FBB"/>
</linearGradient>
<linearGradient id="paint4_linear" x1="132.442" y1="18.2037" x2="181.191" y2="75.7339" gradientUnits="userSpaceOnUse">
<stop offset="0.00359712" stop-color="#E38DDD"/>
<stop offset="1" stop-color="#9571F6"/>
</linearGradient>
<linearGradient id="paint5_linear" x1="129.025" y1="46.2449" x2="176.056" y2="47.4439" gradientUnits="userSpaceOnUse">
<stop stop-color="#311944"/>
<stop offset="1" stop-color="#893976"/>
</linearGradient>
<linearGradient id="paint6_linear" x1="133.889" y1="3.39473" x2="149.859" y2="91.7893" gradientUnits="userSpaceOnUse">
<stop stop-color="#FFC444"/>
<stop offset="0.9964" stop-color="#F36F56"/>
</linearGradient>
<linearGradient id="paint7_linear" x1="143.11" y1="14.7816" x2="154.893" y2="80.0033" gradientUnits="userSpaceOnUse">
<stop stop-color="#FFC444"/>
<stop offset="0.9964" stop-color="#F36F56"/>
</linearGradient>
<linearGradient id="paint8_linear" x1="193.909" y1="46.7854" x2="304.732" y2="151.512" gradientUnits="userSpaceOnUse">
<stop stop-color="#FF9085"/>
<stop offset="1" stop-color="#FB6FBB"/>
</linearGradient>
<linearGradient id="paint9_linear" x1="208.92" y1="85.5142" x2="267.202" y2="140.59" gradientUnits="userSpaceOnUse">
<stop offset="0.00359712" stop-color="#E38DDD"/>
<stop offset="1" stop-color="#9571F6"/>
</linearGradient>
<linearGradient id="paint10_linear" x1="228.921" y1="35.5413" x2="281.541" y2="59.4736" gradientUnits="userSpaceOnUse">
<stop stop-color="#FF9085"/>
<stop offset="1" stop-color="#FB6FBB"/>
</linearGradient>
<linearGradient id="paint11_linear" x1="235.666" y1="24.1244" x2="285.632" y2="46.85" gradientUnits="userSpaceOnUse">
<stop stop-color="#FF9085"/>
<stop offset="1" stop-color="#FB6FBB"/>
</linearGradient>
<linearGradient id="paint12_linear" x1="252.838" y1="52.047" x2="292.215" y2="69.9566" gradientUnits="userSpaceOnUse">
<stop offset="0.00359712" stop-color="#E38DDD"/>
<stop offset="1" stop-color="#9571F6"/>
</linearGradient>
<linearGradient id="paint13_linear" x1="257.623" y1="42.6914" x2="295.717" y2="60.2386" gradientUnits="userSpaceOnUse">
<stop offset="0.00359712" stop-color="#E38DDD"/>
<stop offset="1" stop-color="#9571F6"/>
</linearGradient>
<linearGradient id="paint14_linear" x1="205.721" y1="107.413" x2="204.782" y2="119.369" gradientUnits="userSpaceOnUse">
<stop stop-color="#311944"/>
<stop offset="1" stop-color="#A03976"/>
</linearGradient>
<linearGradient id="paint15_linear" x1="203.295" y1="114.069" x2="203.466" y2="101.687" gradientUnits="userSpaceOnUse">
<stop stop-color="#FFC444"/>
<stop offset="0.9964" stop-color="#F36F56"/>
</linearGradient>
<linearGradient id="paint16_linear" x1="187.958" y1="106.019" x2="187.019" y2="117.974" gradientUnits="userSpaceOnUse">
<stop stop-color="#311944"/>
<stop offset="1" stop-color="#A03976"/>
</linearGradient>
<linearGradient id="paint17_linear" x1="187.015" y1="113.845" x2="187.186" y2="101.462" gradientUnits="userSpaceOnUse">
<stop stop-color="#FFC444"/>
<stop offset="0.9964" stop-color="#F36F56"/>
</linearGradient>
<linearGradient id="paint18_linear" x1="206.252" y1="94.0104" x2="197.09" y2="94.0104" gradientUnits="userSpaceOnUse">
<stop stop-color="#444B8C"/>
<stop offset="0.9964" stop-color="#3E4177"/>
</linearGradient>
<linearGradient id="paint19_linear" x1="206.251" y1="94.0108" x2="197.09" y2="94.0108" gradientUnits="userSpaceOnUse">
<stop stop-color="#444B8C"/>
<stop offset="0.9964" stop-color="#3E4177"/>
</linearGradient>
<linearGradient id="paint20_linear" x1="203.708" y1="93.108" x2="185.266" y2="93.108" gradientUnits="userSpaceOnUse">
<stop stop-color="#444B8C"/>
<stop offset="0.9964" stop-color="#3E4177"/>
</linearGradient>
<linearGradient id="paint21_linear" x1="202.648" y1="92.1285" x2="209.385" y2="53.9702" gradientUnits="userSpaceOnUse">
<stop stop-color="#311944"/>
<stop offset="1" stop-color="#893976"/>
</linearGradient>
<linearGradient id="paint22_linear" x1="206.847" y1="60.3673" x2="206.847" y2="52.9699" gradientUnits="userSpaceOnUse">
<stop stop-color="#FFC444"/>
<stop offset="0.9964" stop-color="#F36F56"/>
</linearGradient>
<linearGradient id="paint23_linear" x1="205.67" y1="57.2682" x2="212.237" y2="51.7501" gradientUnits="userSpaceOnUse">
<stop stop-color="#444B8C"/>
<stop offset="0.9964" stop-color="#3E4177"/>
</linearGradient>
<linearGradient id="paint24_linear" x1="212.079" y1="58.2355" x2="208.622" y2="51.5086" gradientUnits="userSpaceOnUse">
<stop stop-color="#FFC444"/>
<stop offset="0.9964" stop-color="#F36F56"/>
</linearGradient>
<linearGradient id="paint25_linear" x1="186.56" y1="89.5613" x2="193.344" y2="51.1318" gradientUnits="userSpaceOnUse">
<stop stop-color="#311944"/>
<stop offset="1" stop-color="#893976"/>
</linearGradient>
<linearGradient id="paint26_linear" x1="75.7274" y1="197.637" x2="169.174" y2="55.7436" gradientUnits="userSpaceOnUse">
<stop offset="0.00359712" stop-color="#EBEFF2"/>
<stop offset="1" stop-color="white"/>
</linearGradient>
<linearGradient id="paint27_linear" x1="134.75" y1="85.8239" x2="81.4664" y2="140.222" gradientUnits="userSpaceOnUse">
<stop stop-color="#FFC444"/>
<stop offset="0.9964" stop-color="#F36F56"/>
</linearGradient>
<linearGradient id="paint28_linear" x1="154.186" y1="104.862" x2="100.903" y2="159.26" gradientUnits="userSpaceOnUse">
<stop stop-color="#FFC444"/>
<stop offset="0.9964" stop-color="#F36F56"/>
</linearGradient>
<linearGradient id="paint29_linear" x1="70.4606" y1="90.6648" x2="36.3889" y2="191.653" gradientUnits="userSpaceOnUse">
<stop stop-color="#FFC444"/>
<stop offset="0.9964" stop-color="#F36F56"/>
</linearGradient>
<linearGradient id="paint30_linear" x1="216.864" y1="60.4614" x2="179.613" y2="126.542" gradientUnits="userSpaceOnUse">
<stop stop-color="#FFC444"/>
<stop offset="0.9964" stop-color="#F36F56"/>
</linearGradient>
<linearGradient id="paint31_linear" x1="216.846" y1="60.451" x2="179.594" y2="126.532" gradientUnits="userSpaceOnUse">
<stop stop-color="#FFC444"/>
<stop offset="0.9964" stop-color="#F36F56"/>
</linearGradient>
<linearGradient id="paint32_linear" x1="222.798" y1="82.9627" x2="221.307" y2="80.463" gradientUnits="userSpaceOnUse">
<stop stop-color="#FFC444"/>
<stop offset="0.9964" stop-color="#F36F56"/>
</linearGradient>
<linearGradient id="paint33_linear" x1="187.806" y1="76.0504" x2="181.959" y2="73.6294" gradientUnits="userSpaceOnUse">
<stop stop-color="#FFC444"/>
<stop offset="0.9964" stop-color="#F36F56"/>
</linearGradient>
<linearGradient id="paint34_linear" x1="188.068" y1="85.6626" x2="147.263" y2="158.047" gradientUnits="userSpaceOnUse">
<stop stop-color="#FFC444"/>
<stop offset="0.9964" stop-color="#F36F56"/>
</linearGradient>
<linearGradient id="paint35_linear" x1="188.048" y1="85.6513" x2="147.243" y2="158.035" gradientUnits="userSpaceOnUse">
<stop stop-color="#FFC444"/>
<stop offset="0.9964" stop-color="#F36F56"/>
</linearGradient>
<linearGradient id="paint36_linear" x1="152.798" y1="168.724" x2="158.058" y2="168.724" gradientUnits="userSpaceOnUse">
<stop stop-color="#40447E"/>
<stop offset="0.9964" stop-color="#3C3B6B"/>
</linearGradient>
<linearGradient id="paint37_linear" x1="171.009" y1="159.688" x2="174.487" y2="159.688" gradientUnits="userSpaceOnUse">
<stop stop-color="#40447E"/>
<stop offset="0.9964" stop-color="#3C3B6B"/>
</linearGradient>
<linearGradient id="paint38_linear" x1="155.365" y1="168.47" x2="157.272" y2="172.421" gradientUnits="userSpaceOnUse">
<stop stop-color="#311944"/>
<stop offset="1" stop-color="#A03976"/>
</linearGradient>
<linearGradient id="paint39_linear" x1="173.736" y1="152.832" x2="170.821" y2="165.824" gradientUnits="userSpaceOnUse">
<stop stop-color="#311944"/>
<stop offset="1" stop-color="#A03976"/>
</linearGradient>
<linearGradient id="paint40_linear" x1="172.985" y1="162.771" x2="159.512" y2="149.289" gradientUnits="userSpaceOnUse">
<stop stop-color="#AB316D"/>
<stop offset="1" stop-color="#792D3D"/>
</linearGradient>
<linearGradient id="paint41_linear" x1="172.985" y1="162.771" x2="159.512" y2="149.289" gradientUnits="userSpaceOnUse">
<stop stop-color="#AB316D"/>
<stop offset="1" stop-color="#792D3D"/>
</linearGradient>
<linearGradient id="paint42_linear" x1="181.913" y1="153.849" x2="168.44" y2="140.367" gradientUnits="userSpaceOnUse">
<stop stop-color="#AB316D"/>
<stop offset="1" stop-color="#792D3D"/>
</linearGradient>
<linearGradient id="paint43_linear" x1="164.224" y1="111.68" x2="156.773" y2="134.678" gradientUnits="userSpaceOnUse">
<stop offset="0.00359712" stop-color="#E38DDD"/>
<stop offset="1" stop-color="#9571F6"/>
</linearGradient>
<linearGradient id="paint44_linear" x1="188.569" y1="127.074" x2="186.259" y2="124.762" gradientUnits="userSpaceOnUse">
<stop stop-color="#311944"/>
<stop offset="1" stop-color="#A03976"/>
</linearGradient>
<linearGradient id="paint45_linear" x1="174.079" y1="114.873" x2="166.627" y2="137.871" gradientUnits="userSpaceOnUse">
<stop offset="0.00359712" stop-color="#E38DDD"/>
<stop offset="1" stop-color="#9571F6"/>
</linearGradient>
<linearGradient id="paint46_linear" x1="163.892" y1="111.573" x2="156.441" y2="134.57" gradientUnits="userSpaceOnUse">
<stop offset="0.00359712" stop-color="#E38DDD"/>
<stop offset="1" stop-color="#9571F6"/>
</linearGradient>
<linearGradient id="paint47_linear" x1="154.475" y1="117.479" x2="160.461" y2="107.595" gradientUnits="userSpaceOnUse">
<stop stop-color="#311944"/>
<stop offset="1" stop-color="#A03976"/>
</linearGradient>
<linearGradient id="paint48_linear" x1="154.051" y1="117.222" x2="160.037" y2="107.338" gradientUnits="userSpaceOnUse">
<stop stop-color="#311944"/>
<stop offset="1" stop-color="#A03976"/>
</linearGradient>
<linearGradient id="paint49_linear" x1="154.159" y1="117.288" x2="160.145" y2="107.404" gradientUnits="userSpaceOnUse">
<stop stop-color="#311944"/>
<stop offset="1" stop-color="#A03976"/>
</linearGradient>
<linearGradient id="paint50_linear" x1="116.572" y1="183.583" x2="132.093" y2="183.583" gradientUnits="userSpaceOnUse">
<stop stop-color="#AA80F9"/>
<stop offset="0.9964" stop-color="#6165D7"/>
</linearGradient>
<linearGradient id="paint51_linear" x1="121.83" y1="176.414" x2="123.884" y2="176.414" gradientUnits="userSpaceOnUse">
<stop stop-color="#AA80F9"/>
<stop offset="0.9964" stop-color="#6165D7"/>
</linearGradient>
<linearGradient id="paint52_linear" x1="133.052" y1="174.232" x2="129.29" y2="169.326" gradientUnits="userSpaceOnUse">
<stop stop-color="#311944"/>
<stop offset="1" stop-color="#893976"/>
</linearGradient>
<linearGradient id="paint53_linear" x1="124.468" y1="163.279" x2="129.3" y2="150.461" gradientUnits="userSpaceOnUse">
<stop stop-color="#311944"/>
<stop offset="1" stop-color="#893976"/>
</linearGradient>
<linearGradient id="paint54_linear" x1="121.762" y1="165.566" x2="121.688" y2="171.838" gradientUnits="userSpaceOnUse">
<stop stop-color="#311944"/>
<stop offset="1" stop-color="#893976"/>
</linearGradient>
<linearGradient id="paint55_linear" x1="89.4235" y1="141.279" x2="112.877" y2="157.22" gradientUnits="userSpaceOnUse">
<stop stop-color="#FFC444"/>
<stop offset="0.9964" stop-color="#F36F56"/>
</linearGradient>
<linearGradient id="paint56_linear" x1="107.642" y1="190.992" x2="112.423" y2="190.992" gradientUnits="userSpaceOnUse">
<stop stop-color="#311944"/>
<stop offset="1" stop-color="#6B3976"/>
</linearGradient>
<linearGradient id="paint57_linear" x1="109.738" y1="193.754" x2="117.715" y2="169.808" gradientUnits="userSpaceOnUse">
<stop stop-color="#311944"/>
<stop offset="1" stop-color="#A03976"/>
</linearGradient>
<linearGradient id="paint58_linear" x1="98.3115" y1="187.75" x2="103.092" y2="187.75" gradientUnits="userSpaceOnUse">
<stop stop-color="#311944"/>
<stop offset="1" stop-color="#6B3976"/>
</linearGradient>
<linearGradient id="paint59_linear" x1="100.408" y1="190.512" x2="108.384" y2="166.566" gradientUnits="userSpaceOnUse">
<stop stop-color="#311944"/>
<stop offset="1" stop-color="#A03976"/>
</linearGradient>
<linearGradient id="paint60_linear" x1="108.647" y1="187.582" x2="114.311" y2="169.645" gradientUnits="userSpaceOnUse">
<stop stop-color="#444B8C"/>
<stop offset="0.9964" stop-color="#3E4177"/>
</linearGradient>
<linearGradient id="paint61_linear" x1="109.25" y1="170.256" x2="122.989" y2="173.061" gradientUnits="userSpaceOnUse">
<stop stop-color="#444B8C"/>
<stop offset="0.9964" stop-color="#3E4177"/>
</linearGradient>
<linearGradient id="paint62_linear" x1="102.194" y1="137.994" x2="141.448" y2="164.675" gradientUnits="userSpaceOnUse">
<stop stop-color="#FFC444"/>
<stop offset="0.9964" stop-color="#F36F56"/>
</linearGradient>
<linearGradient id="paint63_linear" x1="98.7035" y1="143.131" x2="137.957" y2="169.811" gradientUnits="userSpaceOnUse">
<stop stop-color="#FFC444"/>
<stop offset="0.9964" stop-color="#F36F56"/>
</linearGradient>
<linearGradient id="paint64_linear" x1="110.821" y1="136.318" x2="113.415" y2="139.874" gradientUnits="userSpaceOnUse">
<stop stop-color="#311944"/>
<stop offset="0.2163" stop-color="#49204E"/>
<stop offset="0.3096" stop-color="#532353"/>
<stop offset="1" stop-color="#A03976"/>
</linearGradient>
<linearGradient id="paint65_linear" x1="113.867" y1="141.38" x2="107.121" y2="133.065" gradientUnits="userSpaceOnUse">
<stop stop-color="#444B8C"/>
<stop offset="0.9964" stop-color="#26264F"/>
</linearGradient>
<linearGradient id="paint66_linear" x1="116.341" y1="131.254" x2="105.58" y2="139.907" gradientUnits="userSpaceOnUse">
<stop stop-color="#311944"/>
<stop offset="0.2163" stop-color="#49204E"/>
<stop offset="0.3096" stop-color="#532353"/>
<stop offset="1" stop-color="#A03976"/>
</linearGradient>
<linearGradient id="paint67_linear" x1="78.7064" y1="149.984" x2="104.024" y2="149.984" gradientUnits="userSpaceOnUse">
<stop stop-color="#AA80F9"/>
<stop offset="0.9964" stop-color="#6165D7"/>
</linearGradient>
<linearGradient id="paint68_linear" x1="96.145" y1="142.429" x2="83.0831" y2="162.291" gradientUnits="userSpaceOnUse">
<stop stop-color="#AA80F9"/>
<stop offset="0.9964" stop-color="#6165D7"/>
</linearGradient>
<linearGradient id="paint69_linear" x1="78.9165" y1="155.844" x2="103.543" y2="155.844" gradientUnits="userSpaceOnUse">
<stop stop-color="#AA80F9"/>
<stop offset="0.9964" stop-color="#6165D7"/>
</linearGradient>
<linearGradient id="paint70_linear" x1="95.6587" y1="159.164" x2="88.9318" y2="163.203" gradientUnits="userSpaceOnUse">
<stop stop-color="#AA80F9"/>
<stop offset="0.9964" stop-color="#6165D7"/>
</linearGradient>
<linearGradient id="paint71_linear" x1="91.089" y1="150.923" x2="86.2244" y2="171.419" gradientUnits="userSpaceOnUse">
<stop stop-color="#AA80F9"/>
<stop offset="0.9964" stop-color="#6165D7"/>
</linearGradient>
<linearGradient id="paint72_linear" x1="113.558" y1="158.155" x2="140.262" y2="125.283" gradientUnits="userSpaceOnUse">
<stop stop-color="#FFC444"/>
<stop offset="0.9964" stop-color="#F36F56"/>
</linearGradient>
<linearGradient id="paint73_linear" x1="107.402" y1="156.335" x2="105.994" y2="161.043" gradientUnits="userSpaceOnUse">
<stop stop-color="#311944"/>
<stop offset="0.2163" stop-color="#49204E"/>
<stop offset="0.3096" stop-color="#532353"/>
<stop offset="1" stop-color="#A03976"/>
</linearGradient>
<linearGradient id="paint74_linear" x1="75.1525" y1="127.643" x2="99.7805" y2="139.503" gradientUnits="userSpaceOnUse">
<stop stop-color="#FFC444"/>
<stop offset="0.9964" stop-color="#F36F56"/>
</linearGradient>
<linearGradient id="paint75_linear" x1="75.6553" y1="126.596" x2="100.283" y2="138.456" gradientUnits="userSpaceOnUse">
<stop stop-color="#FFC444"/>
<stop offset="0.9964" stop-color="#F36F56"/>
</linearGradient>
<linearGradient id="paint76_linear" x1="76.2316" y1="125.4" x2="100.859" y2="137.26" gradientUnits="userSpaceOnUse">
<stop stop-color="#FFC444"/>
<stop offset="0.9964" stop-color="#F36F56"/>
</linearGradient>
<linearGradient id="paint77_linear" x1="94.8103" y1="134.133" x2="99.2598" y2="134.133" gradientUnits="userSpaceOnUse">
<stop stop-color="#FFC444"/>
<stop offset="0.9964" stop-color="#F36F56"/>
</linearGradient>
<linearGradient id="paint78_linear" x1="71.5274" y1="127.921" x2="109.287" y2="146.105" gradientUnits="userSpaceOnUse">
<stop stop-color="#FFC444"/>
<stop offset="0.9964" stop-color="#F36F56"/>
</linearGradient>
<linearGradient id="paint79_linear" x1="231.782" y1="108.258" x2="230.108" y2="110.967" gradientUnits="userSpaceOnUse">
<stop stop-color="#FFC444"/>
<stop offset="0.9964" stop-color="#F36F56"/>
</linearGradient>
<linearGradient id="paint80_linear" x1="255.645" y1="140.313" x2="256.321" y2="141.703" gradientUnits="userSpaceOnUse">
<stop stop-color="#FFC444"/>
<stop offset="0.9964" stop-color="#F36F56"/>
</linearGradient>
<linearGradient id="paint81_linear" x1="253.922" y1="175.716" x2="253.922" y2="171.355" gradientUnits="userSpaceOnUse">
<stop stop-color="#FFC444"/>
<stop offset="0.9964" stop-color="#F36F56"/>
</linearGradient>
<linearGradient id="paint82_linear" x1="240.62" y1="176.959" x2="240.62" y2="171.703" gradientUnits="userSpaceOnUse">
<stop stop-color="#FFC444"/>
<stop offset="0.9964" stop-color="#F36F56"/>
</linearGradient>
<linearGradient id="paint83_linear" x1="237.677" y1="156.312" x2="254.885" y2="156.312" gradientUnits="userSpaceOnUse">
<stop stop-color="#311944"/>
<stop offset="1" stop-color="#893976"/>
</linearGradient>
<linearGradient id="paint84_linear" x1="237.13" y1="143.493" x2="249.516" y2="164.309" gradientUnits="userSpaceOnUse">
<stop stop-color="#311944"/>
<stop offset="1" stop-color="#893976"/>
</linearGradient>
<linearGradient id="paint85_linear" x1="242.011" y1="140.589" x2="254.397" y2="161.405" gradientUnits="userSpaceOnUse">
<stop stop-color="#311944"/>
<stop offset="1" stop-color="#893976"/>
</linearGradient>
<linearGradient id="paint86_linear" x1="251.563" y1="127.793" x2="242.259" y2="99.2684" gradientUnits="userSpaceOnUse">
<stop stop-color="#FF9085"/>
<stop offset="1" stop-color="#FB6FBB"/>
</linearGradient>
<linearGradient id="paint87_linear" x1="239.407" y1="121.141" x2="252.69" y2="148.474" gradientUnits="userSpaceOnUse">
<stop stop-color="#FF9085"/>
<stop offset="1" stop-color="#FB6FBB"/>
</linearGradient>
<linearGradient id="paint88_linear" x1="245.198" y1="117.722" x2="247.737" y2="121.76" gradientUnits="userSpaceOnUse">
<stop offset="0.00359712" stop-color="#E38DDD"/>
<stop offset="1" stop-color="#9571F6"/>
</linearGradient>
<linearGradient id="paint89_linear" x1="248.266" y1="117.102" x2="245.476" y2="121.619" gradientUnits="userSpaceOnUse">
<stop stop-color="#FFC444"/>
<stop offset="0.9964" stop-color="#F36F56"/>
</linearGradient>
<linearGradient id="paint90_linear" x1="247.265" y1="116.491" x2="245.673" y2="121.375" gradientUnits="userSpaceOnUse">
<stop stop-color="#FFC444"/>
<stop offset="0.9964" stop-color="#F36F56"/>
</linearGradient>
<linearGradient id="paint91_linear" x1="246.447" y1="97.8188" x2="269.831" y2="135.01" gradientUnits="userSpaceOnUse">
<stop stop-color="#444B8C"/>
<stop offset="0.9964" stop-color="#26264F"/>
</linearGradient>
<linearGradient id="paint92_linear" x1="237.927" y1="121.778" x2="250.992" y2="148.66" gradientUnits="userSpaceOnUse">
<stop stop-color="#FF9085"/>
<stop offset="1" stop-color="#FB6FBB"/>
</linearGradient>
<linearGradient id="paint93_linear" x1="237.487" y1="122.074" x2="250.77" y2="149.407" gradientUnits="userSpaceOnUse">
<stop stop-color="#FF9085"/>
<stop offset="1" stop-color="#FB6FBB"/>
</linearGradient>
<linearGradient id="paint94_linear" x1="88.8486" y1="56.5098" x2="62.3303" y2="87.8047" gradientUnits="userSpaceOnUse">
<stop stop-color="#FFC444"/>
<stop offset="0.9964" stop-color="#F36F56"/>
</linearGradient>
<linearGradient id="paint95_linear" x1="85.5795" y1="53.7398" x2="59.0614" y2="85.0345" gradientUnits="userSpaceOnUse">
<stop stop-color="#FFC444"/>
<stop offset="0.9964" stop-color="#F36F56"/>
</linearGradient>
<linearGradient id="paint96_linear" x1="34.3048" y1="44.8381" x2="182.669" y2="58.1437" gradientUnits="userSpaceOnUse">
<stop stop-color="#FFC444"/>
<stop offset="0.9964" stop-color="#F36F56"/>
</linearGradient>
<linearGradient id="paint97_linear" x1="101.102" y1="-0.882286" x2="125.563" y2="134.502" gradientUnits="userSpaceOnUse">
<stop stop-color="#FF9085"/>
<stop offset="1" stop-color="#FB6FBB"/>
</linearGradient>
<linearGradient id="paint98_linear" x1="92.7225" y1="-0.634721" x2="117.487" y2="136.435" gradientUnits="userSpaceOnUse">
<stop stop-color="#FF9085"/>
<stop offset="1" stop-color="#FB6FBB"/>
</linearGradient>
<linearGradient id="paint99_linear" x1="134.875" y1="46.9529" x2="178.795" y2="46.9529" gradientUnits="userSpaceOnUse">
<stop stop-color="#311944"/>
<stop offset="1" stop-color="#893976"/>
</linearGradient>
<linearGradient id="paint100_linear" x1="35.0928" y1="36.0493" x2="183.457" y2="49.3548" gradientUnits="userSpaceOnUse">
<stop stop-color="#311944"/>
<stop offset="1" stop-color="#893976"/>
</linearGradient>
<linearGradient id="paint101_linear" x1="136.959" y1="47.4236" x2="170.539" y2="47.4236" gradientUnits="userSpaceOnUse">
<stop stop-color="#311944"/>
<stop offset="1" stop-color="#893976"/>
</linearGradient>
<clipPath id="clip0">
<rect width="292" height="214" fill="white" transform="translate(0.5)"/>
</clipPath>
</defs>
</svg>
